<?xml version="1.0" encoding="utf-8"?>
<!-- Generator: Adobe Illustrator 22.0.1, SVG Export Plug-In . SVG Version: 6.00 Build 0)  -->
<svg version="1.1" id="Ebene_4" xmlns="http://www.w3.org/2000/svg" xmlns:xlink="http://www.w3.org/1999/xlink" x="0px" y="0px"
	 width="386px" height="80px" viewBox="0 0 386 80" enable-background="new 0 0 386 80" xml:space="preserve">
<path fill="#D2DDEA" d="M79.831,0.116H0.098v79.767h79.733c5.019-12.955,7.075-26.782,7.12-39.981
	C86.999,25.56,84.659,11.809,79.831,0.116z"/>
<path fill="#D2DDEA" d="M79.898,79.981H0V0.019h79.896l0.025,0.06c4.712,11.412,7.177,25.183,7.127,39.824
	c-0.049,14.474-2.447,27.938-7.126,40.016L79.898,79.981z M0.195,79.786h79.569c4.655-12.04,7.04-25.458,7.089-39.884
	c0.049-14.589-2.401-28.311-7.087-39.688H0.195V79.786z"/>
<path fill="#1C365C" d="M172.836,79.883H79.831c4.933-12.815,7.055-26.295,7.12-39.884c0.067-14.047-2.26-28.168-7.12-39.884h93.005
	V79.883z"/>
<path fill="#004B89" d="M172.953,80H79.662l0.061-0.158c4.65-12.081,7.043-25.486,7.112-39.842
	c0.069-14.468-2.456-28.616-7.111-39.838L79.657,0h93.295V80z M80,79.767h92.719V0.233H80.005
	C84.629,11.457,87.136,25.571,87.067,40C86.998,54.323,84.621,67.701,80,79.767z"/>
<path fill-rule="evenodd" clip-rule="evenodd" fill="#FFFFFF" d="M132.827,14.711c0-0.725,0.59-1.313,1.317-1.313h2.634
	c0.728,0,1.317,0.588,1.317,1.313l-0.004,23.954c0,0.725-0.59,1.313-1.317,1.313h-2.616c-0.728,0-1.327-0.585-1.327-1.31l0-9.869
	h-10.694l0.002,9.867c0,0.725-0.59,1.313-1.317,1.313h-2.633c-0.728,0-1.318-0.588-1.318-1.313l0.001-23.954
	c0-0.725,0.59-1.313,1.317-1.313h2.641c0.728,0,1.318,0.588,1.318,1.313l0.001,9.636h10.683L132.827,14.711z"/>
<path fill-rule="evenodd" clip-rule="evenodd" fill="#FFFFFF" d="M165.362,14.711c0.651-0.725,0.587-1.308-0.302-1.3l-3.734,0.011
	c-0.728,0-1.422-0.157-2.591,1.008l-9.837,10.999l0-10.694c0-0.725-0.558-1.312-1.286-1.312h-2.68c-0.727,0-1.317,0.588-1.317,1.312
	l-0.001,23.953c0,0.725,0.59,1.313,1.317,1.313h2.691c0.728,0,1.276-0.588,1.276-1.313l0-5.579l4.523-5.032l6.543,10.611
	c0.445,0.725,1.071,1.313,1.798,1.313h3.78c0.728,0,0.957-0.588,0.512-1.313l-9.076-14.586L165.362,14.711z"/>
<path fill-rule="evenodd" clip-rule="evenodd" fill="#FFFFFF" d="M103.618,13.399c0.994,0,1.518,0.588,1.765,1.313l8.172,23.954
	c0.248,0.725-0.142,1.313-0.869,1.313h-2.616c-0.728,0-1.541-0.588-1.789-1.313l-1.742-5.394h-8.991l-1.733,5.394
	c-0.247,0.725-1.061,1.313-1.789,1.313h-2.616c-0.728,0-1.117-0.588-0.869-1.313l8.172-23.954c0.247-0.725,0.772-1.313,1.766-1.313
	H103.618z M98.516,28.788h6.003l-2.983-9.285L98.516,28.788z"/>
<polygon fill="#0058A2" points="60.207,40.074 50.122,52.528 70.572,52.528 80.912,40.041 58.715,13.243 37.877,13.243 "/>
<polygon fill="#1D1D1B" points="33.026,39.699 43.09,27.268 22.639,27.268 12.298,39.759 12.345,39.699 "/>
<polygon fill="#E40520" points="44.126,53.088 33.01,39.721 33.026,39.699 33.026,39.699 12.345,39.699 12.298,39.759 
	23.339,53.088 23.339,53.088 44.126,53.088 "/>
<polygon fill="#FFD500" points="44.126,53.088 44.126,53.088 23.339,53.088 23.339,53.088 34.498,66.554 55.337,66.554 "/>
<path fill="#1D1D1B" d="M193.942,19.01c0,0.845-0.067,1.565-0.197,2.162c-0.133,0.596-0.313,1.097-0.545,1.503
	c-0.231,0.407-0.501,0.731-0.805,0.973c-0.306,0.244-0.637,0.428-0.995,0.554c-0.357,0.127-0.725,0.209-1.104,0.245
	c-0.378,0.038-0.756,0.056-1.135,0.056h-2.699V13.58h2.699c0.871,0,1.611,0.1,2.216,0.301c0.605,0.2,1.097,0.517,1.475,0.949
	c0.378,0.433,0.655,0.993,0.829,1.679C193.854,17.195,193.942,18.029,193.942,19.01z M191.909,19.01c0-0.666-0.036-1.255-0.11-1.768
	c-0.074-0.512-0.212-0.943-0.411-1.291c-0.201-0.35-0.48-0.613-0.838-0.793c-0.359-0.179-0.823-0.269-1.392-0.269h-0.855v8.307
	h0.855c0.463,0,0.87-0.061,1.218-0.183c0.348-0.121,0.635-0.338,0.862-0.65c0.227-0.312,0.395-0.74,0.505-1.284
	C191.853,20.536,191.909,19.846,191.909,19.01z"/>
<path fill="#1D1D1B" d="M196.898,20.289c0,0.262,0.047,0.572,0.142,0.929c0.094,0.356,0.253,0.701,0.474,1.031
	c0.221,0.33,0.514,0.612,0.877,0.842c0.363,0.232,0.808,0.347,1.336,0.347c0.274,0,0.543-0.033,0.806-0.101
	c0.263-0.068,0.473-0.129,0.632-0.182v1.217c-0.611,0.201-1.313,0.301-2.103,0.301c-1.222,0-2.159-0.374-2.811-1.122
	c-0.65-0.748-0.976-1.818-0.976-3.209c0-0.527,0.059-1.007,0.18-1.438c0.121-0.433,0.313-0.804,0.575-1.114
	c0.263-0.312,0.596-0.554,1.002-0.728c0.405-0.174,0.893-0.26,1.462-0.26c0.959,0,1.675,0.28,2.15,0.84
	c0.473,0.56,0.711,1.3,0.711,2.219v0.428H196.898z M199.695,19.224c0-0.117-0.018-0.253-0.054-0.407
	c-0.038-0.154-0.103-0.297-0.198-0.43c-0.094-0.133-0.229-0.245-0.403-0.336c-0.174-0.089-0.398-0.135-0.672-0.135
	c-0.253,0-0.469,0.048-0.649,0.144c-0.179,0.095-0.324,0.21-0.434,0.342c-0.11,0.133-0.192,0.274-0.245,0.424
	c-0.053,0.148-0.085,0.281-0.094,0.398H199.695z"/>
<path fill="#1D1D1B" d="M207.337,24.504V23.09h-0.024c-0.064,0.138-0.15,0.298-0.26,0.483c-0.11,0.185-0.253,0.359-0.427,0.522
	c-0.174,0.164-0.387,0.301-0.64,0.412c-0.253,0.11-0.552,0.167-0.899,0.167c-0.274,0-0.534-0.047-0.781-0.142
	c-0.248-0.095-0.463-0.245-0.647-0.451c-0.185-0.204-0.331-0.463-0.442-0.775c-0.11-0.31-0.165-0.683-0.165-1.114v-5.22h1.743v4.301
	c0,0.379,0.009,0.684,0.03,0.917c0.021,0.232,0.06,0.41,0.119,0.537c0.057,0.126,0.136,0.207,0.236,0.244
	c0.1,0.038,0.228,0.056,0.387,0.056c0.295,0,0.552-0.089,0.773-0.268c0.221-0.18,0.405-0.406,0.552-0.681
	c0.148-0.272,0.259-0.577,0.333-0.908c0.073-0.333,0.11-0.645,0.11-0.942v-3.256h1.743v7.533H207.337z"/>
<path fill="#1D1D1B" d="M213.691,18.207v3.545c0,0.221,0.011,0.434,0.032,0.639c0.021,0.204,0.074,0.386,0.157,0.544
	c0.085,0.157,0.206,0.281,0.365,0.369c0.157,0.091,0.368,0.135,0.632,0.135c0.147,0,0.286-0.014,0.418-0.039
	c0.132-0.026,0.262-0.056,0.387-0.086v1.234c-0.242,0.042-0.481,0.074-0.719,0.095c-0.238,0.021-0.477,0.032-0.719,0.032
	c-0.495,0-0.894-0.056-1.198-0.165c-0.303-0.111-0.536-0.26-0.699-0.45c-0.162-0.189-0.269-0.407-0.321-0.656
	c-0.053-0.247-0.079-0.512-0.079-0.796v-4.401h-1.471v-1.235h1.471v-1.779l1.743-1.055v2.834h2.229v1.235H213.691z"/>
<path fill="#1D1D1B" d="M221.457,22.412c0,0.389-0.071,0.728-0.213,1.013c-0.142,0.285-0.34,0.518-0.593,0.702
	c-0.254,0.185-0.555,0.322-0.903,0.412c-0.348,0.089-0.728,0.135-1.138,0.135c-0.517,0-0.935-0.038-1.251-0.111
	c-0.316-0.074-0.564-0.136-0.743-0.191l0.008-1.517c0.253,0.117,0.546,0.224,0.877,0.318c0.333,0.097,0.678,0.144,1.036,0.144
	c0.106,0,0.233-0.008,0.38-0.023c0.148-0.017,0.291-0.048,0.428-0.095c0.136-0.047,0.253-0.117,0.348-0.206
	c0.094-0.089,0.142-0.209,0.142-0.356c0-0.148-0.08-0.294-0.238-0.436c-0.159-0.142-0.359-0.292-0.601-0.45
	c-0.244-0.159-0.504-0.327-0.784-0.507c-0.28-0.179-0.542-0.378-0.784-0.599c-0.242-0.221-0.443-0.466-0.601-0.736
	c-0.159-0.269-0.238-0.566-0.238-0.893c0-0.707,0.247-1.253,0.738-1.638c0.493-0.384,1.151-0.577,1.973-0.577
	c0.369,0,0.701,0.035,0.996,0.103c0.295,0.068,0.532,0.129,0.711,0.18v1.482c-0.042-0.021-0.118-0.061-0.229-0.118
	c-0.11-0.058-0.239-0.117-0.387-0.174c-0.147-0.058-0.313-0.107-0.498-0.15c-0.184-0.043-0.372-0.064-0.561-0.064
	c-0.138,0-0.274,0.017-0.411,0.047c-0.136,0.033-0.26,0.077-0.371,0.135c-0.11,0.059-0.203,0.13-0.277,0.213
	c-0.074,0.085-0.11,0.185-0.11,0.301c0,0.168,0.082,0.324,0.244,0.466c0.163,0.142,0.365,0.291,0.607,0.444
	c0.242,0.153,0.507,0.313,0.796,0.481c0.289,0.17,0.554,0.362,0.796,0.578c0.241,0.216,0.443,0.462,0.605,0.736
	C221.375,21.737,221.457,22.053,221.457,22.412z"/>
<path fill="#1D1D1B" d="M226.902,19.563c0-0.18-0.015-0.363-0.047-0.548c-0.032-0.186-0.088-0.35-0.166-0.494
	c-0.079-0.142-0.192-0.259-0.339-0.35c-0.148-0.089-0.343-0.135-0.585-0.135c-0.484,0-0.846,0.2-1.083,0.601
	c-0.236,0.4-0.356,0.884-0.356,1.452c0,0.38,0.056,0.769,0.166,1.169c0.111,0.401,0.288,0.761,0.53,1.082
	c0.242,0.321,0.561,0.584,0.956,0.79c0.395,0.204,0.877,0.307,1.446,0.307c0.484,0,0.906-0.062,1.265-0.188v1.075
	c-0.337,0.106-0.688,0.189-1.051,0.253c-0.363,0.064-0.746,0.095-1.145,0.095c-0.57,0-1.1-0.079-1.589-0.238
	c-0.49-0.157-0.917-0.407-1.28-0.751c-0.363-0.342-0.648-0.784-0.853-1.328c-0.206-0.542-0.309-1.193-0.309-1.951
	c0-0.495,0.066-0.96,0.198-1.391c0.132-0.432,0.334-0.814,0.608-1.146c0.274-0.332,0.629-0.593,1.067-0.783
	c0.437-0.189,0.961-0.285,1.572-0.285c0.569,0,1.038,0.08,1.407,0.238c0.369,0.159,0.661,0.366,0.877,0.619
	c0.215,0.254,0.366,0.548,0.449,0.881c0.085,0.333,0.127,0.674,0.127,1.023H226.902z"/>
<path fill="#1D1D1B" d="M234.271,24.504v-4.301c0-0.379-0.011-0.684-0.032-0.917c-0.021-0.23-0.062-0.41-0.121-0.536
	c-0.057-0.127-0.138-0.209-0.239-0.245c-0.1-0.038-0.23-0.056-0.39-0.056c-0.297,0-0.557,0.089-0.781,0.268
	c-0.222,0.18-0.408,0.409-0.557,0.689c-0.15,0.279-0.26,0.583-0.336,0.91c-0.074,0.327-0.111,0.637-0.111,0.933v3.256h-1.743V13.58
	h1.743v4.805h0.024c0.063-0.147,0.147-0.31,0.253-0.49c0.106-0.18,0.25-0.351,0.43-0.515c0.179-0.164,0.396-0.301,0.651-0.412
	c0.254-0.111,0.555-0.167,0.905-0.167c0.275,0,0.536,0.047,0.785,0.142c0.248,0.095,0.464,0.245,0.65,0.451
	c0.185,0.206,0.333,0.463,0.443,0.775c0.112,0.31,0.168,0.683,0.168,1.114v5.219H234.271z"/>
<path fill="#1D1D1B" d="M237.8,21.283v-1.72h5.879v1.72H237.8z"/>
<path fill="#1D1D1B" d="M253.176,23.679c-0.104,0.074-0.26,0.169-0.466,0.285c-0.206,0.116-0.457,0.227-0.752,0.331
	c-0.295,0.104-0.629,0.195-1.004,0.268c-0.374,0.072-0.778,0.111-1.21,0.111c-0.812,0-1.511-0.142-2.097-0.427
	c-0.585-0.285-1.068-0.68-1.448-1.187c-0.38-0.506-0.658-1.104-0.838-1.795c-0.178-0.69-0.269-1.437-0.269-2.239
	c0-0.875,0.079-1.659,0.238-2.355c0.157-0.696,0.407-1.284,0.747-1.764c0.342-0.48,0.787-0.849,1.334-1.107
	c0.548-0.258,1.21-0.387,1.991-0.387c0.632,0,1.177,0.077,1.636,0.229c0.458,0.153,0.835,0.364,1.13,0.633
	c0.295,0.269,0.514,0.59,0.657,0.964c0.142,0.375,0.213,0.782,0.213,1.225h-2.055c0-0.201-0.027-0.404-0.08-0.61
	c-0.053-0.206-0.142-0.394-0.268-0.563c-0.127-0.169-0.291-0.306-0.49-0.412c-0.201-0.106-0.448-0.159-0.743-0.159
	c-0.475,0-0.859,0.117-1.154,0.348c-0.295,0.233-0.523,0.546-0.687,0.943c-0.163,0.395-0.277,0.855-0.34,1.378
	c-0.064,0.522-0.095,1.069-0.095,1.638c0,0.497,0.032,1.004,0.095,1.521c0.063,0.518,0.191,0.984,0.381,1.402
	c0.191,0.416,0.458,0.757,0.803,1.022c0.345,0.263,0.793,0.395,1.343,0.395c0.445,0,0.8-0.047,1.065-0.142
	c0.265-0.094,0.439-0.189,0.523-0.283v-3.474h-2.054v-1.308h3.894V23.679z"/>
<path fill="#1D1D1B" d="M259.318,18.642c-0.885,0-1.518,0.2-1.897,0.601c-0.38,0.4-0.569,1.054-0.569,1.959v3.302h-1.743V16.98
	h1.743v1.393h0.032c0.106-0.18,0.218-0.365,0.34-0.556c0.121-0.191,0.274-0.36,0.458-0.509c0.183-0.147,0.407-0.269,0.672-0.363
	c0.263-0.097,0.584-0.144,0.964-0.144V18.642z"/>
<path fill="#1D1D1B" d="M262.536,15.324V13.58h-1.743v1.744H262.536z M262.536,24.504v-7.528h-1.743v7.528H262.536z"/>
<path fill="#1D1D1B" d="M265.951,20.289c0,0.262,0.047,0.572,0.142,0.929c0.094,0.356,0.253,0.701,0.474,1.031
	c0.221,0.33,0.514,0.612,0.877,0.842c0.363,0.232,0.808,0.347,1.336,0.347c0.274,0,0.543-0.033,0.806-0.101
	c0.263-0.068,0.474-0.129,0.632-0.182v1.217c-0.611,0.201-1.313,0.301-2.103,0.301c-1.223,0-2.159-0.374-2.811-1.122
	c-0.65-0.748-0.976-1.818-0.976-3.209c0-0.527,0.059-1.007,0.18-1.438c0.121-0.433,0.313-0.804,0.575-1.114
	c0.263-0.312,0.596-0.554,1.002-0.728c0.405-0.174,0.892-0.26,1.461-0.26c0.959,0,1.675,0.28,2.15,0.84
	c0.474,0.56,0.711,1.3,0.711,2.219v0.428H265.951z M268.748,19.224c0-0.117-0.018-0.253-0.054-0.407
	c-0.038-0.154-0.103-0.297-0.198-0.43c-0.094-0.133-0.228-0.245-0.402-0.336c-0.174-0.089-0.398-0.135-0.672-0.135
	c-0.253,0-0.469,0.048-0.649,0.144c-0.178,0.095-0.324,0.21-0.434,0.342c-0.11,0.133-0.192,0.274-0.245,0.424
	c-0.053,0.148-0.085,0.281-0.094,0.398H268.748z"/>
<path fill="#1D1D1B" d="M276.061,19.563c0-0.18-0.017-0.363-0.048-0.548c-0.032-0.186-0.086-0.35-0.167-0.494
	c-0.079-0.142-0.192-0.259-0.339-0.35c-0.148-0.089-0.343-0.135-0.585-0.135c-0.484,0-0.846,0.2-1.082,0.601
	c-0.237,0.4-0.356,0.884-0.356,1.452c0,0.38,0.055,0.769,0.165,1.169c0.11,0.401,0.287,0.761,0.53,1.082
	c0.242,0.321,0.561,0.584,0.956,0.79c0.395,0.204,0.878,0.307,1.446,0.307c0.486,0,0.906-0.062,1.265-0.188v1.075
	c-0.337,0.106-0.687,0.189-1.051,0.253c-0.363,0.064-0.746,0.095-1.145,0.095c-0.569,0-1.098-0.079-1.589-0.238
	c-0.49-0.157-0.917-0.407-1.28-0.751c-0.363-0.342-0.648-0.784-0.853-1.328c-0.206-0.542-0.307-1.193-0.307-1.951
	c0-0.495,0.065-0.96,0.197-1.391c0.132-0.432,0.335-0.814,0.608-1.146c0.274-0.332,0.629-0.593,1.067-0.783
	c0.437-0.189,0.961-0.285,1.572-0.285c0.569,0,1.038,0.08,1.407,0.238c0.369,0.159,0.661,0.366,0.877,0.619
	c0.216,0.254,0.366,0.548,0.451,0.881c0.083,0.333,0.125,0.674,0.125,1.023H276.061z"/>
<path fill="#1D1D1B" d="M283.429,24.504v-4.301c0-0.379-0.011-0.684-0.032-0.917c-0.021-0.23-0.062-0.41-0.12-0.536
	c-0.059-0.127-0.139-0.209-0.239-0.245c-0.101-0.038-0.231-0.056-0.39-0.056c-0.298,0-0.558,0.089-0.782,0.268
	c-0.223,0.18-0.409,0.409-0.557,0.689c-0.15,0.279-0.26,0.583-0.334,0.91c-0.076,0.327-0.112,0.637-0.112,0.933v3.256h-1.743V13.58
	h1.743v4.805h0.024c0.064-0.147,0.148-0.31,0.254-0.49c0.106-0.18,0.248-0.351,0.428-0.515c0.18-0.164,0.396-0.301,0.651-0.412
	c0.254-0.111,0.555-0.167,0.905-0.167c0.275,0,0.537,0.047,0.785,0.142c0.248,0.095,0.464,0.245,0.651,0.451
	c0.185,0.206,0.333,0.463,0.445,0.775c0.11,0.31,0.166,0.683,0.166,1.114v5.219H283.429z"/>
<path fill="#1D1D1B" d="M289.162,15.324V13.58h-1.743v1.744H289.162z M289.162,24.504v-7.528h-1.743v7.528H289.162z"/>
<path fill="#1D1D1B" d="M295.771,22.412c0,0.389-0.071,0.728-0.213,1.013c-0.142,0.285-0.341,0.518-0.593,0.702
	c-0.254,0.185-0.555,0.322-0.903,0.412c-0.348,0.089-0.728,0.135-1.138,0.135c-0.517,0-0.935-0.038-1.251-0.111
	c-0.316-0.074-0.564-0.136-0.743-0.191l0.007-1.517c0.253,0.117,0.546,0.224,0.877,0.318c0.333,0.097,0.678,0.144,1.036,0.144
	c0.106,0,0.233-0.008,0.38-0.023c0.148-0.017,0.29-0.048,0.428-0.095c0.136-0.047,0.253-0.117,0.348-0.206
	c0.094-0.089,0.142-0.209,0.142-0.356c0-0.148-0.08-0.294-0.237-0.436c-0.159-0.142-0.359-0.292-0.601-0.45
	c-0.244-0.159-0.504-0.327-0.784-0.507c-0.28-0.179-0.542-0.378-0.784-0.599c-0.242-0.221-0.443-0.466-0.601-0.736
	c-0.159-0.269-0.238-0.566-0.238-0.893c0-0.707,0.247-1.253,0.738-1.638c0.493-0.384,1.151-0.577,1.973-0.577
	c0.369,0,0.701,0.035,0.996,0.103c0.295,0.068,0.533,0.129,0.711,0.18v1.482c-0.042-0.021-0.118-0.061-0.228-0.118
	c-0.111-0.058-0.239-0.117-0.387-0.174c-0.147-0.058-0.313-0.107-0.498-0.15c-0.184-0.043-0.372-0.064-0.561-0.064
	c-0.138,0-0.274,0.017-0.411,0.047c-0.136,0.033-0.26,0.077-0.371,0.135c-0.111,0.059-0.203,0.13-0.277,0.213
	c-0.074,0.085-0.11,0.185-0.11,0.301c0,0.168,0.082,0.324,0.244,0.466c0.163,0.142,0.365,0.291,0.607,0.444
	c0.242,0.153,0.507,0.313,0.796,0.481c0.289,0.17,0.554,0.362,0.796,0.578c0.241,0.216,0.443,0.462,0.605,0.736
	C295.69,21.737,295.771,22.053,295.771,22.412z"/>
<path fill="#1D1D1B" d="M301.216,19.563c0-0.18-0.015-0.363-0.047-0.548c-0.032-0.186-0.088-0.35-0.166-0.494
	c-0.079-0.142-0.192-0.259-0.339-0.35c-0.148-0.089-0.343-0.135-0.586-0.135c-0.484,0-0.846,0.2-1.083,0.601
	c-0.236,0.4-0.356,0.884-0.356,1.452c0,0.38,0.056,0.769,0.166,1.169c0.11,0.401,0.287,0.761,0.529,1.082
	c0.242,0.321,0.561,0.584,0.956,0.79c0.395,0.204,0.877,0.307,1.446,0.307c0.484,0,0.906-0.062,1.265-0.188v1.075
	c-0.337,0.106-0.688,0.189-1.051,0.253c-0.363,0.064-0.746,0.095-1.145,0.095c-0.57,0-1.1-0.079-1.589-0.238
	c-0.49-0.157-0.917-0.407-1.28-0.751c-0.363-0.342-0.648-0.784-0.853-1.328c-0.206-0.542-0.309-1.193-0.309-1.951
	c0-0.495,0.067-0.96,0.198-1.391c0.132-0.432,0.334-0.814,0.608-1.146c0.274-0.332,0.629-0.593,1.067-0.783
	c0.437-0.189,0.961-0.285,1.572-0.285c0.569,0,1.038,0.08,1.407,0.238c0.369,0.159,0.661,0.366,0.877,0.619
	c0.215,0.254,0.366,0.548,0.449,0.881c0.085,0.333,0.127,0.674,0.127,1.023H301.216z"/>
<path fill="#1D1D1B" d="M308.585,24.504v-4.301c0-0.379-0.012-0.684-0.033-0.917c-0.021-0.23-0.061-0.41-0.12-0.536
	c-0.057-0.127-0.138-0.209-0.239-0.245c-0.1-0.038-0.23-0.056-0.39-0.056c-0.297,0-0.557,0.089-0.781,0.268
	c-0.222,0.18-0.409,0.409-0.557,0.689c-0.15,0.279-0.262,0.583-0.336,0.91c-0.074,0.327-0.11,0.637-0.11,0.933v3.256h-1.743V13.58
	h1.743v4.805h0.024c0.064-0.147,0.147-0.31,0.253-0.49c0.106-0.18,0.25-0.351,0.43-0.515c0.179-0.164,0.396-0.301,0.651-0.412
	c0.253-0.111,0.555-0.167,0.905-0.167c0.274,0,0.536,0.047,0.785,0.142c0.248,0.095,0.465,0.245,0.651,0.451
	c0.185,0.206,0.333,0.463,0.443,0.775c0.112,0.31,0.168,0.683,0.168,1.114v5.219H308.585z"/>
<path fill="#1D1D1B" d="M313.64,20.289c0,0.262,0.047,0.572,0.142,0.929c0.094,0.356,0.253,0.701,0.474,1.031
	c0.221,0.33,0.514,0.612,0.878,0.842c0.363,0.232,0.808,0.347,1.336,0.347c0.274,0,0.543-0.033,0.806-0.101
	c0.263-0.068,0.474-0.129,0.632-0.182v1.217c-0.611,0.201-1.313,0.301-2.103,0.301c-1.222,0-2.159-0.374-2.811-1.122
	c-0.651-0.748-0.976-1.818-0.976-3.209c0-0.527,0.059-1.007,0.18-1.438c0.121-0.433,0.313-0.804,0.575-1.114
	c0.263-0.312,0.596-0.554,1.002-0.728c0.405-0.174,0.892-0.26,1.461-0.26c0.959,0,1.675,0.28,2.15,0.84
	c0.474,0.56,0.711,1.3,0.711,2.219v0.428H313.64z M316.437,19.224c0-0.117-0.018-0.253-0.055-0.407
	c-0.038-0.154-0.103-0.297-0.198-0.43c-0.094-0.133-0.228-0.245-0.402-0.336c-0.174-0.089-0.398-0.135-0.672-0.135
	c-0.253,0-0.469,0.048-0.649,0.144c-0.178,0.095-0.324,0.21-0.434,0.342c-0.11,0.133-0.192,0.274-0.245,0.424
	c-0.053,0.148-0.085,0.281-0.094,0.398H316.437z"/>
<path fill="#1D1D1B" d="M186.414,40.005V29.081h1.84v10.923H186.414z"/>
<path fill="#1D1D1B" d="M196.509,40.005v-5.219c0-0.431-0.056-0.804-0.166-1.114c-0.112-0.312-0.259-0.569-0.445-0.775
	c-0.185-0.206-0.402-0.356-0.65-0.451c-0.248-0.095-0.51-0.142-0.785-0.142c-0.35,0-0.65,0.056-0.905,0.167
	c-0.254,0.11-0.471,0.248-0.651,0.412c-0.18,0.164-0.322,0.335-0.428,0.515c-0.106,0.18-0.191,0.344-0.254,0.49h-0.024V32.48h-1.743
	v7.525h1.743v-3.256c0-0.295,0.038-0.605,0.112-0.933c0.074-0.327,0.186-0.631,0.334-0.91c0.148-0.28,0.334-0.509,0.558-0.689
	c0.222-0.179,0.483-0.268,0.781-0.268c0.159,0,0.289,0.018,0.39,0.056c0.101,0.036,0.18,0.118,0.239,0.245
	c0.058,0.126,0.098,0.306,0.119,0.536c0.021,0.233,0.032,0.539,0.032,0.917v4.301H196.509z"/>
<path fill="#1D1D1B" d="M202.702,40.005V38.96h-0.024c-0.042,0.104-0.12,0.229-0.23,0.371c-0.112,0.142-0.25,0.275-0.413,0.401
	c-0.165,0.127-0.352,0.232-0.564,0.316c-0.212,0.083-0.439,0.126-0.682,0.126c-0.508,0-0.927-0.106-1.256-0.316
	c-0.328-0.21-0.591-0.498-0.793-0.861c-0.201-0.363-0.342-0.783-0.421-1.256c-0.08-0.474-0.12-0.975-0.12-1.502
	c0-0.548,0.05-1.061,0.151-1.541c0.1-0.48,0.256-0.896,0.468-1.249c0.212-0.353,0.479-0.633,0.802-0.837
	c0.324-0.206,0.713-0.309,1.168-0.309c0.286,0,0.534,0.038,0.746,0.111c0.212,0.073,0.392,0.165,0.54,0.276
	c0.148,0.11,0.272,0.23,0.374,0.356c0.1,0.126,0.177,0.236,0.23,0.331h0.024v-4.295h1.743v10.923H202.702z M202.702,36.238
	c0-0.348-0.021-0.678-0.064-0.988c-0.042-0.312-0.116-0.586-0.222-0.823c-0.106-0.238-0.244-0.424-0.413-0.562
	c-0.169-0.138-0.383-0.206-0.637-0.206c-0.286,0-0.516,0.077-0.691,0.23c-0.174,0.153-0.307,0.35-0.396,0.593
	c-0.091,0.242-0.148,0.516-0.175,0.822c-0.026,0.306-0.039,0.618-0.039,0.934c0,0.295,0.015,0.597,0.047,0.902
	c0.032,0.306,0.095,0.583,0.191,0.831c0.095,0.248,0.228,0.451,0.398,0.608c0.169,0.159,0.392,0.238,0.667,0.238
	c0.244,0,0.451-0.079,0.62-0.238c0.169-0.157,0.307-0.357,0.413-0.601c0.106-0.242,0.183-0.519,0.231-0.831
	C202.677,36.838,202.702,36.534,202.702,36.238z"/>
<path fill="#1D1D1B" d="M210.844,40.005v-1.414h-0.024c-0.062,0.138-0.15,0.298-0.26,0.483c-0.111,0.185-0.253,0.359-0.425,0.522
	c-0.174,0.164-0.387,0.301-0.64,0.412c-0.253,0.111-0.552,0.167-0.899,0.167c-0.274,0-0.534-0.047-0.782-0.142
	c-0.247-0.095-0.463-0.245-0.646-0.451c-0.185-0.204-0.331-0.463-0.442-0.775c-0.11-0.31-0.166-0.683-0.166-1.114v-5.22h1.743v4.301
	c0,0.379,0.011,0.684,0.032,0.917c0.021,0.232,0.061,0.41,0.118,0.537c0.059,0.126,0.138,0.207,0.237,0.244
	c0.1,0.038,0.229,0.056,0.387,0.056c0.294,0,0.552-0.089,0.773-0.268c0.221-0.18,0.406-0.406,0.552-0.681
	c0.148-0.272,0.259-0.577,0.331-0.908c0.074-0.333,0.11-0.645,0.11-0.942v-3.256h1.743v7.533H210.844z"/>
<path fill="#1D1D1B" d="M219.118,37.913c0,0.389-0.071,0.728-0.213,1.013c-0.142,0.285-0.341,0.518-0.593,0.702
	c-0.254,0.185-0.554,0.322-0.902,0.412c-0.348,0.089-0.728,0.135-1.139,0.135c-0.517,0-0.934-0.038-1.25-0.111
	c-0.318-0.074-0.564-0.136-0.744-0.191l0.008-1.517c0.253,0.117,0.546,0.224,0.877,0.318c0.333,0.097,0.678,0.144,1.038,0.144
	c0.104,0,0.232-0.008,0.378-0.023c0.148-0.017,0.29-0.048,0.428-0.095c0.136-0.047,0.253-0.117,0.348-0.206
	c0.095-0.089,0.142-0.209,0.142-0.356c0-0.148-0.079-0.294-0.238-0.436c-0.157-0.142-0.359-0.292-0.601-0.45
	c-0.244-0.159-0.504-0.327-0.784-0.507c-0.28-0.179-0.54-0.378-0.784-0.599c-0.242-0.221-0.443-0.466-0.601-0.736
	c-0.159-0.269-0.238-0.566-0.238-0.893c0-0.707,0.247-1.253,0.74-1.638c0.492-0.384,1.15-0.577,1.971-0.577
	c0.369,0,0.702,0.035,0.997,0.103c0.295,0.068,0.531,0.129,0.711,0.18v1.482c-0.042-0.021-0.12-0.061-0.23-0.118
	c-0.11-0.057-0.239-0.117-0.387-0.174c-0.147-0.057-0.313-0.107-0.498-0.15c-0.185-0.042-0.371-0.064-0.561-0.064
	c-0.136,0-0.274,0.017-0.41,0.047c-0.138,0.033-0.262,0.077-0.372,0.135c-0.111,0.059-0.203,0.13-0.277,0.213
	c-0.074,0.085-0.111,0.185-0.111,0.301c0,0.168,0.082,0.324,0.244,0.466c0.163,0.142,0.366,0.291,0.607,0.444
	c0.242,0.153,0.507,0.313,0.796,0.481c0.289,0.17,0.554,0.362,0.796,0.578c0.241,0.216,0.443,0.462,0.607,0.736
	C219.036,37.237,219.118,37.554,219.118,37.913z"/>
<path fill="#1D1D1B" d="M223.045,33.707v3.545c0,0.221,0.011,0.434,0.032,0.639c0.021,0.204,0.074,0.386,0.159,0.543
	c0.083,0.158,0.204,0.282,0.363,0.369c0.157,0.091,0.369,0.135,0.632,0.135c0.147,0,0.288-0.014,0.419-0.039
	c0.132-0.026,0.26-0.056,0.387-0.086v1.234c-0.244,0.042-0.483,0.074-0.72,0.095c-0.237,0.021-0.477,0.032-0.719,0.032
	c-0.495,0-0.894-0.056-1.197-0.165c-0.304-0.111-0.537-0.26-0.699-0.45c-0.163-0.189-0.271-0.407-0.322-0.656
	c-0.053-0.247-0.079-0.512-0.079-0.796v-4.401h-1.469v-1.235h1.469v-1.779l1.743-1.055v2.834h2.229v1.235H223.045z"/>
<path fill="#1D1D1B" d="M230.639,34.143c-0.885,0-1.518,0.2-1.897,0.601c-0.38,0.4-0.569,1.054-0.569,1.959v3.301h-1.743v-7.523
	h1.743v1.393h0.032c0.106-0.18,0.218-0.365,0.34-0.556c0.121-0.191,0.274-0.36,0.458-0.509c0.183-0.147,0.407-0.269,0.672-0.363
	c0.263-0.097,0.584-0.144,0.964-0.144V34.143z"/>
<path fill="#1D1D1B" d="M233.856,30.825v-1.744h-1.743v1.744H233.856z M233.856,40.005v-7.528h-1.743v7.528H233.856z"/>
<path fill="#1D1D1B" d="M237.271,35.79c0,0.262,0.047,0.572,0.142,0.929c0.094,0.356,0.253,0.701,0.474,1.031
	c0.221,0.33,0.514,0.612,0.877,0.842c0.363,0.232,0.808,0.347,1.336,0.347c0.274,0,0.543-0.033,0.806-0.101
	c0.263-0.068,0.474-0.129,0.632-0.182v1.217c-0.611,0.201-1.313,0.301-2.103,0.301c-1.222,0-2.159-0.374-2.811-1.122
	c-0.651-0.748-0.976-1.818-0.976-3.209c0-0.527,0.059-1.007,0.18-1.438c0.121-0.433,0.313-0.804,0.575-1.114
	c0.263-0.312,0.596-0.554,1.002-0.728c0.405-0.174,0.892-0.26,1.461-0.26c0.959,0,1.675,0.28,2.15,0.84
	c0.474,0.56,0.711,1.3,0.711,2.219v0.428H237.271z M240.068,34.725c0-0.117-0.018-0.253-0.054-0.407
	c-0.038-0.154-0.103-0.297-0.198-0.43c-0.094-0.133-0.228-0.245-0.402-0.336c-0.174-0.089-0.398-0.135-0.672-0.135
	c-0.253,0-0.469,0.048-0.649,0.144c-0.178,0.095-0.324,0.21-0.434,0.342c-0.11,0.133-0.192,0.274-0.245,0.424
	c-0.053,0.148-0.085,0.281-0.094,0.398H240.068z"/>
<path fill="#1D1D1B" d="M243.062,36.784v-1.72h5.879v1.72H243.062z"/>
<path fill="#1D1D1B" d="M259.703,40.005v-1.414h-0.024c-0.063,0.138-0.15,0.298-0.26,0.483c-0.11,0.185-0.253,0.359-0.427,0.522
	c-0.172,0.164-0.386,0.301-0.638,0.412c-0.253,0.111-0.552,0.167-0.898,0.167c-0.274,0-0.534-0.047-0.782-0.142
	c-0.247-0.095-0.463-0.245-0.646-0.451c-0.185-0.204-0.331-0.463-0.442-0.775c-0.11-0.31-0.166-0.683-0.166-1.114v-5.22h1.743v4.301
	c0,0.379,0.011,0.684,0.032,0.917c0.021,0.232,0.061,0.41,0.118,0.537c0.057,0.126,0.138,0.207,0.238,0.244
	c0.1,0.038,0.228,0.056,0.386,0.056c0.295,0,0.554-0.089,0.775-0.268c0.221-0.18,0.404-0.406,0.552-0.681
	c0.147-0.272,0.257-0.577,0.331-0.908c0.074-0.333,0.11-0.645,0.11-0.942v-3.256h1.743v7.533H259.703z"/>
<path fill="#1D1D1B" d="M267.928,40.005v-4.301c0-0.379-0.011-0.684-0.032-0.917c-0.021-0.23-0.062-0.41-0.12-0.536
	c-0.059-0.127-0.139-0.209-0.239-0.245c-0.101-0.038-0.232-0.056-0.39-0.056c-0.298,0-0.558,0.089-0.782,0.268
	c-0.222,0.18-0.409,0.409-0.557,0.689c-0.15,0.279-0.26,0.583-0.334,0.91c-0.076,0.327-0.112,0.637-0.112,0.933v3.256h-1.743V32.48
	h1.743v1.406h0.024c0.064-0.147,0.148-0.31,0.254-0.49c0.106-0.18,0.248-0.351,0.428-0.515c0.18-0.164,0.396-0.301,0.65-0.412
	c0.254-0.111,0.555-0.167,0.905-0.167c0.275,0,0.537,0.047,0.785,0.142c0.248,0.095,0.464,0.245,0.651,0.451
	c0.185,0.206,0.333,0.463,0.445,0.775c0.11,0.31,0.166,0.683,0.166,1.114v5.219H267.928z"/>
<path fill="#1D1D1B" d="M275.863,40.005V38.96h-0.024c-0.042,0.104-0.119,0.229-0.232,0.371c-0.11,0.142-0.248,0.275-0.413,0.401
	c-0.163,0.127-0.351,0.232-0.563,0.316c-0.212,0.083-0.44,0.126-0.682,0.126c-0.508,0-0.927-0.106-1.256-0.316
	c-0.328-0.21-0.593-0.498-0.794-0.861c-0.201-0.363-0.34-0.783-0.421-1.256c-0.079-0.474-0.118-0.975-0.118-1.502
	c0-0.548,0.05-1.061,0.15-1.541c0.101-0.48,0.257-0.896,0.469-1.249c0.212-0.353,0.478-0.633,0.802-0.837
	c0.322-0.206,0.713-0.309,1.168-0.309c0.284,0,0.534,0.038,0.746,0.111c0.212,0.073,0.392,0.165,0.54,0.276
	c0.148,0.11,0.272,0.23,0.372,0.356c0.102,0.126,0.179,0.236,0.232,0.331h0.024v-4.295h1.743v10.923H275.863z M275.863,36.238
	c0-0.348-0.021-0.678-0.064-0.988c-0.042-0.312-0.118-0.586-0.224-0.823c-0.106-0.238-0.244-0.424-0.413-0.562
	c-0.169-0.138-0.381-0.206-0.635-0.206c-0.286,0-0.516,0.077-0.691,0.23c-0.174,0.153-0.307,0.35-0.398,0.593
	c-0.089,0.242-0.148,0.516-0.174,0.822c-0.027,0.306-0.039,0.618-0.039,0.934c0,0.295,0.015,0.597,0.047,0.902
	c0.032,0.306,0.095,0.583,0.191,0.831c0.095,0.248,0.228,0.451,0.398,0.608c0.169,0.159,0.392,0.238,0.667,0.238
	c0.244,0,0.451-0.079,0.62-0.238c0.169-0.157,0.307-0.357,0.413-0.601c0.106-0.242,0.183-0.519,0.23-0.831
	C275.839,36.838,275.863,36.534,275.863,36.238z"/>
<path fill="#1D1D1B" d="M290.257,40.005v-4.989h-3.922v4.989h-1.84V29.081h1.84v4.529h3.922v-4.529h1.84v10.923H290.257z"/>
<path fill="#1D1D1B" d="M298.178,40.005v-0.876h-0.024c-0.064,0.127-0.144,0.251-0.239,0.372c-0.095,0.123-0.221,0.233-0.38,0.333
	c-0.159,0.1-0.346,0.182-0.563,0.245c-0.218,0.064-0.48,0.095-0.785,0.095c-0.635,0-1.163-0.176-1.587-0.528
	c-0.422-0.351-0.634-0.831-0.634-1.441c0-0.419,0.079-0.772,0.237-1.055c0.157-0.283,0.363-0.516,0.617-0.701
	c0.253-0.183,0.539-0.327,0.855-0.433c0.316-0.106,0.631-0.182,0.943-0.229c0.312-0.047,0.607-0.079,0.887-0.094
	c0.28-0.017,0.504-0.024,0.673-0.024v-0.748c0-0.191-0.014-0.368-0.039-0.533c-0.027-0.163-0.08-0.31-0.159-0.437
	c-0.079-0.127-0.186-0.227-0.324-0.303c-0.136-0.073-0.316-0.111-0.537-0.111c-0.242,0-0.437,0.038-0.586,0.112
	c-0.147,0.074-0.263,0.166-0.348,0.278c-0.083,0.111-0.142,0.236-0.174,0.374c-0.032,0.138-0.047,0.271-0.047,0.398h-1.707
	c0-0.731,0.236-1.312,0.711-1.747c0.473-0.434,1.191-0.651,2.15-0.651c0.936,0,1.626,0.198,2.067,0.593
	c0.442,0.395,0.663,0.978,0.663,1.747v5.362H298.178z M298.178,36.687c-0.284,0-0.573,0.024-0.868,0.071
	c-0.295,0.047-0.563,0.124-0.805,0.228c-0.242,0.104-0.439,0.244-0.591,0.416c-0.153,0.174-0.229,0.388-0.229,0.639
	c0,0.599,0.31,0.898,0.93,0.898c0.284,0,0.526-0.068,0.726-0.204c0.2-0.136,0.36-0.315,0.481-0.536
	c0.121-0.221,0.21-0.465,0.268-0.733C298.15,37.198,298.178,36.939,298.178,36.687z"/>
<path fill="#1D1D1B" d="M306.263,40.005v-4.301c0-0.379-0.012-0.684-0.033-0.917c-0.021-0.23-0.06-0.41-0.12-0.536
	c-0.057-0.127-0.138-0.209-0.239-0.245c-0.1-0.038-0.23-0.056-0.39-0.056c-0.297,0-0.557,0.089-0.781,0.268
	c-0.222,0.18-0.408,0.409-0.557,0.689c-0.15,0.279-0.262,0.583-0.336,0.91c-0.074,0.327-0.11,0.637-0.11,0.933v3.256h-1.743V32.48
	h1.743v1.406h0.024c0.063-0.147,0.147-0.31,0.253-0.49c0.106-0.18,0.25-0.351,0.43-0.515c0.179-0.164,0.396-0.301,0.651-0.412
	c0.253-0.111,0.555-0.167,0.905-0.167c0.274,0,0.536,0.047,0.785,0.142c0.248,0.095,0.465,0.245,0.651,0.451
	c0.185,0.206,0.333,0.463,0.443,0.775c0.112,0.31,0.168,0.683,0.168,1.114v5.219H306.263z"/>
<path fill="#1D1D1B" d="M314.197,40.005V38.96h-0.024c-0.043,0.104-0.118,0.229-0.23,0.371c-0.11,0.142-0.248,0.275-0.413,0.401
	c-0.164,0.127-0.351,0.232-0.563,0.316c-0.212,0.083-0.44,0.126-0.684,0.126c-0.508,0-0.926-0.106-1.254-0.316
	c-0.328-0.21-0.593-0.498-0.794-0.861c-0.201-0.363-0.34-0.783-0.421-1.256c-0.079-0.474-0.119-0.975-0.119-1.502
	c0-0.548,0.051-1.061,0.151-1.541c0.101-0.48,0.257-0.896,0.469-1.249c0.212-0.353,0.478-0.633,0.802-0.837
	c0.322-0.206,0.711-0.309,1.167-0.309c0.286,0,0.536,0.038,0.747,0.111c0.212,0.073,0.39,0.165,0.539,0.276
	c0.148,0.11,0.274,0.23,0.374,0.356c0.101,0.126,0.177,0.236,0.23,0.331h0.024v-4.295h1.743v10.923H314.197z M314.197,36.238
	c0-0.348-0.021-0.678-0.064-0.988c-0.042-0.312-0.116-0.586-0.222-0.823c-0.106-0.238-0.244-0.424-0.413-0.562
	c-0.169-0.138-0.381-0.206-0.635-0.206c-0.286,0-0.517,0.077-0.691,0.23c-0.175,0.153-0.307,0.35-0.398,0.593
	c-0.089,0.242-0.148,0.516-0.174,0.822c-0.027,0.306-0.041,0.618-0.041,0.934c0,0.295,0.017,0.597,0.048,0.902
	c0.032,0.306,0.095,0.583,0.191,0.831c0.095,0.248,0.228,0.451,0.398,0.608c0.169,0.159,0.392,0.238,0.667,0.238
	c0.244,0,0.451-0.079,0.62-0.238c0.17-0.157,0.307-0.357,0.413-0.601c0.106-0.242,0.183-0.519,0.23-0.831
	C314.174,36.838,314.197,36.534,314.197,36.238z"/>
<path fill="#1D1D1B" d="M319.218,35.79c0,0.262,0.047,0.572,0.142,0.929c0.095,0.356,0.253,0.701,0.474,1.031
	c0.222,0.33,0.514,0.612,0.878,0.842c0.363,0.232,0.809,0.347,1.336,0.347c0.274,0,0.543-0.033,0.806-0.101
	c0.263-0.068,0.474-0.129,0.632-0.182v1.217c-0.611,0.201-1.312,0.301-2.103,0.301c-1.222,0-2.159-0.374-2.809-1.122
	c-0.652-0.748-0.977-1.818-0.977-3.209c0-0.527,0.06-1.007,0.181-1.438c0.12-0.433,0.312-0.804,0.574-1.114
	c0.263-0.312,0.596-0.554,1.001-0.728c0.406-0.174,0.893-0.26,1.462-0.26c0.959,0,1.676,0.28,2.15,0.84
	c0.475,0.56,0.711,1.3,0.711,2.219v0.428H319.218z M322.017,34.725c0-0.117-0.02-0.253-0.056-0.407
	c-0.036-0.154-0.103-0.297-0.197-0.43c-0.095-0.133-0.23-0.245-0.404-0.336c-0.174-0.089-0.398-0.135-0.672-0.135
	c-0.253,0-0.469,0.048-0.647,0.144c-0.18,0.095-0.325,0.21-0.436,0.342c-0.11,0.133-0.192,0.274-0.245,0.424
	c-0.053,0.148-0.083,0.281-0.094,0.398H322.017z"/>
<path fill="#1D1D1B" d="M325.469,40.005V29.081h1.743v10.923H325.469z"/>
<path fill="#1D1D1B" d="M333.822,37.913c0,0.389-0.071,0.728-0.213,1.013c-0.142,0.285-0.34,0.518-0.593,0.702
	c-0.254,0.185-0.555,0.322-0.903,0.412c-0.348,0.089-0.728,0.135-1.138,0.135c-0.517,0-0.935-0.038-1.251-0.111
	c-0.316-0.074-0.564-0.136-0.743-0.191l0.008-1.517c0.253,0.117,0.546,0.224,0.878,0.318c0.333,0.097,0.678,0.144,1.036,0.144
	c0.106,0,0.233-0.008,0.38-0.023c0.148-0.017,0.29-0.048,0.428-0.095c0.136-0.047,0.253-0.117,0.348-0.206
	c0.094-0.089,0.142-0.209,0.142-0.356c0-0.148-0.08-0.294-0.238-0.436c-0.159-0.142-0.359-0.292-0.601-0.45
	c-0.244-0.159-0.504-0.327-0.784-0.507c-0.28-0.179-0.542-0.378-0.784-0.599c-0.242-0.221-0.443-0.466-0.601-0.736
	c-0.159-0.269-0.238-0.566-0.238-0.893c0-0.707,0.246-1.253,0.738-1.638c0.493-0.384,1.151-0.577,1.973-0.577
	c0.369,0,0.7,0.035,0.995,0.103c0.295,0.068,0.533,0.129,0.711,0.18v1.482c-0.042-0.021-0.118-0.061-0.228-0.118
	c-0.11-0.057-0.239-0.117-0.387-0.174c-0.147-0.057-0.313-0.107-0.498-0.15c-0.185-0.042-0.372-0.064-0.561-0.064
	c-0.138,0-0.274,0.017-0.412,0.047c-0.136,0.033-0.26,0.077-0.371,0.135c-0.11,0.059-0.203,0.13-0.277,0.213
	c-0.074,0.085-0.11,0.185-0.11,0.301c0,0.168,0.082,0.324,0.243,0.466c0.163,0.142,0.365,0.291,0.607,0.444
	c0.242,0.153,0.507,0.313,0.796,0.481c0.289,0.17,0.554,0.362,0.796,0.578c0.24,0.216,0.443,0.462,0.605,0.736
	C333.74,37.237,333.822,37.554,333.822,37.913z"/>
<path fill="#1D1D1B" d="M339.718,40.005l-2.657-3.8h-0.032v3.8h-1.743V29.081h1.743v6.269l2.434-2.881h2.103l-2.782,3.261
	l3.035,4.275H339.718z"/>
<path fill="#1D1D1B" d="M346.736,40.005v-0.876h-0.024c-0.064,0.127-0.142,0.251-0.238,0.372c-0.095,0.123-0.222,0.233-0.381,0.333
	c-0.159,0.1-0.347,0.182-0.563,0.245c-0.216,0.064-0.478,0.095-0.785,0.095c-0.634,0-1.163-0.176-1.587-0.528
	c-0.422-0.351-0.634-0.831-0.634-1.441c0-0.419,0.079-0.772,0.237-1.055c0.159-0.283,0.365-0.516,0.617-0.701
	c0.254-0.183,0.539-0.327,0.855-0.433c0.318-0.106,0.631-0.182,0.943-0.229c0.312-0.047,0.607-0.079,0.887-0.094
	c0.28-0.017,0.504-0.024,0.673-0.024v-0.748c0-0.191-0.014-0.368-0.039-0.533c-0.027-0.163-0.079-0.31-0.159-0.437
	c-0.079-0.127-0.186-0.227-0.324-0.303c-0.136-0.073-0.316-0.111-0.537-0.111c-0.242,0-0.437,0.038-0.584,0.112
	c-0.148,0.074-0.265,0.166-0.348,0.278c-0.085,0.111-0.142,0.236-0.174,0.374c-0.032,0.138-0.049,0.271-0.049,0.398h-1.707
	c0-0.731,0.238-1.312,0.711-1.747c0.475-0.434,1.191-0.651,2.15-0.651c0.938,0,1.626,0.198,2.068,0.593
	c0.44,0.395,0.661,0.978,0.661,1.747v5.362H346.736z M346.736,36.687c-0.284,0-0.573,0.024-0.868,0.071
	c-0.294,0.047-0.563,0.124-0.805,0.228c-0.242,0.104-0.439,0.244-0.591,0.416c-0.153,0.174-0.229,0.388-0.229,0.639
	c0,0.599,0.31,0.898,0.932,0.898c0.283,0,0.525-0.068,0.725-0.204c0.2-0.136,0.36-0.315,0.481-0.536
	c0.121-0.221,0.21-0.465,0.269-0.733C346.707,37.198,346.736,36.939,346.736,36.687z"/>
<path fill="#1D1D1B" d="M358.597,40.005v-4.301c0-0.379-0.011-0.684-0.032-0.917c-0.021-0.23-0.061-0.41-0.12-0.536
	c-0.058-0.127-0.138-0.209-0.238-0.245c-0.101-0.038-0.23-0.056-0.389-0.056c-0.254,0-0.475,0.089-0.666,0.268
	c-0.191,0.18-0.35,0.409-0.477,0.689c-0.127,0.279-0.221,0.583-0.284,0.91c-0.064,0.327-0.095,0.637-0.095,0.933v3.256h-1.743
	v-4.301c0-0.379-0.01-0.684-0.032-0.917c-0.021-0.23-0.061-0.41-0.12-0.536c-0.058-0.127-0.138-0.209-0.238-0.245
	c-0.101-0.038-0.23-0.056-0.389-0.056c-0.254,0-0.475,0.089-0.665,0.268c-0.191,0.18-0.35,0.409-0.477,0.689
	c-0.127,0.279-0.221,0.583-0.284,0.91c-0.064,0.327-0.095,0.637-0.095,0.933v3.256h-1.743v-7.526h1.743v1.155h0.024
	c0.053-0.117,0.126-0.251,0.221-0.404c0.094-0.153,0.221-0.298,0.378-0.436c0.157-0.136,0.349-0.253,0.576-0.348
	c0.225-0.095,0.492-0.142,0.797-0.142c0.451,0,0.852,0.12,1.198,0.356c0.348,0.239,0.579,0.621,0.694,1.149h0.032
	c0.053-0.148,0.136-0.309,0.253-0.483c0.117-0.174,0.262-0.336,0.436-0.483c0.174-0.148,0.383-0.274,0.625-0.38
	c0.244-0.106,0.513-0.159,0.808-0.159c0.274,0,0.536,0.047,0.784,0.142c0.248,0.095,0.464,0.245,0.649,0.451
	c0.185,0.206,0.333,0.463,0.443,0.775c0.11,0.31,0.166,0.683,0.166,1.114v5.219H358.597z"/>
<path fill="#1D1D1B" d="M370.59,40.005v-4.301c0-0.379-0.011-0.684-0.032-0.917c-0.021-0.23-0.061-0.41-0.118-0.536
	c-0.059-0.127-0.138-0.209-0.239-0.245c-0.1-0.038-0.23-0.056-0.387-0.056c-0.254,0-0.477,0.089-0.667,0.268
	c-0.189,0.18-0.348,0.409-0.475,0.689c-0.127,0.279-0.223,0.583-0.286,0.91c-0.064,0.327-0.095,0.637-0.095,0.933v3.256h-1.743
	v-4.301c0-0.379-0.011-0.684-0.032-0.917c-0.021-0.23-0.061-0.41-0.118-0.536c-0.059-0.127-0.138-0.209-0.239-0.245
	c-0.1-0.038-0.23-0.056-0.387-0.056c-0.254,0-0.477,0.089-0.667,0.268c-0.189,0.18-0.348,0.409-0.475,0.689
	c-0.127,0.279-0.222,0.583-0.286,0.91c-0.064,0.327-0.095,0.637-0.095,0.933v3.256h-1.743v-7.526h1.743v1.155h0.024
	c0.053-0.117,0.127-0.251,0.221-0.404c0.095-0.153,0.221-0.298,0.38-0.436c0.157-0.136,0.349-0.253,0.575-0.348
	c0.227-0.095,0.492-0.142,0.797-0.142c0.452,0,0.852,0.12,1.2,0.356c0.346,0.239,0.578,0.621,0.695,1.149h0.03
	c0.053-0.148,0.138-0.309,0.254-0.483c0.115-0.174,0.26-0.336,0.434-0.483c0.174-0.148,0.383-0.274,0.626-0.38
	c0.242-0.106,0.511-0.159,0.808-0.159c0.274,0,0.534,0.047,0.782,0.142c0.248,0.095,0.464,0.245,0.649,0.451
	c0.185,0.206,0.333,0.463,0.443,0.775c0.112,0.31,0.166,0.683,0.166,1.114v5.219H370.59z"/>
<path fill="#1D1D1B" d="M375.661,35.79c0,0.262,0.047,0.572,0.142,0.929c0.095,0.356,0.253,0.701,0.474,1.031
	c0.222,0.33,0.514,0.612,0.877,0.842c0.363,0.232,0.809,0.347,1.336,0.347c0.274,0,0.543-0.033,0.806-0.101
	c0.263-0.068,0.474-0.129,0.632-0.182v1.217c-0.611,0.201-1.312,0.301-2.103,0.301c-1.222,0-2.159-0.374-2.809-1.122
	c-0.652-0.748-0.977-1.818-0.977-3.209c0-0.527,0.061-1.007,0.182-1.438c0.12-0.433,0.312-0.804,0.573-1.114
	c0.263-0.312,0.596-0.554,1.002-0.728c0.406-0.174,0.893-0.26,1.462-0.26c0.959,0,1.676,0.28,2.15,0.84
	c0.475,0.56,0.711,1.3,0.711,2.219v0.428H375.661z M378.46,34.725c0-0.117-0.02-0.253-0.056-0.407
	c-0.036-0.154-0.103-0.297-0.197-0.43c-0.095-0.133-0.23-0.245-0.404-0.336c-0.174-0.089-0.398-0.135-0.672-0.135
	c-0.253,0-0.469,0.048-0.647,0.144c-0.18,0.095-0.325,0.21-0.436,0.342c-0.11,0.133-0.192,0.274-0.245,0.424
	c-0.053,0.148-0.083,0.281-0.094,0.398H378.46z"/>
<path fill="#1D1D1B" d="M386,34.143c-0.885,0-1.517,0.2-1.897,0.601c-0.38,0.4-0.569,1.054-0.569,1.959v3.301h-1.743v-7.523h1.743
	v1.393h0.032c0.104-0.18,0.218-0.365,0.339-0.556c0.121-0.191,0.274-0.36,0.458-0.509c0.185-0.147,0.409-0.269,0.672-0.363
	c0.263-0.097,0.585-0.144,0.965-0.144V34.143z"/>
<path fill="#1D1D1B" d="M186.607,55.506V44.582h5.282V45.6h-4.047v3.681h3.856v1.017h-3.856v4.19h4.189v1.017H186.607z"/>
<path fill="#1D1D1B" d="M197.999,55.51l-1.834-6.073l-2.322,6.073h-1.154l2.986-7.75l-0.346-1.138
	c-0.095-0.316-0.209-0.559-0.34-0.727c-0.132-0.17-0.281-0.285-0.451-0.348c-0.168-0.064-0.36-0.082-0.576-0.056
	c-0.216,0.027-0.457,0.082-0.72,0.167v-0.964c0.327-0.085,0.646-0.133,0.958-0.142c0.31-0.012,0.602,0.036,0.876,0.142
	c0.274,0.104,0.517,0.275,0.728,0.513c0.21,0.238,0.38,0.562,0.505,0.973l2.846,9.331H197.999z"/>
<path fill="#1D1D1B" d="M204.636,55.51l-1.834-6.073l-2.324,6.073h-1.153l2.986-7.75l-0.348-1.138
	c-0.094-0.316-0.207-0.559-0.339-0.727c-0.132-0.17-0.283-0.285-0.451-0.348c-0.169-0.064-0.362-0.082-0.576-0.056
	c-0.216,0.027-0.457,0.082-0.72,0.167v-0.964c0.327-0.085,0.646-0.133,0.956-0.142c0.312-0.012,0.604,0.036,0.877,0.142
	c0.274,0.104,0.516,0.275,0.728,0.513c0.21,0.238,0.38,0.562,0.505,0.973l2.846,9.331H204.636z"/>
<path fill="#1D1D1B" d="M211.458,55.506v-4.181c0-0.327-0.006-0.639-0.017-0.934c-0.011-0.297-0.05-0.557-0.12-0.784
	c-0.07-0.227-0.181-0.407-0.334-0.539c-0.154-0.132-0.371-0.198-0.646-0.198c-0.362,0-0.675,0.12-0.941,0.356
	c-0.266,0.239-0.489,0.536-0.669,0.896c-0.182,0.359-0.318,0.745-0.407,1.156c-0.091,0.412-0.135,0.786-0.135,1.123v3.105h-1.065
	v-7.533h1.065v1.744h0.024c0.051-0.158,0.127-0.345,0.221-0.562c0.097-0.215,0.231-0.424,0.405-0.624
	c0.176-0.201,0.404-0.372,0.684-0.515c0.281-0.142,0.634-0.213,1.057-0.213c0.319,0,0.599,0.064,0.843,0.189
	c0.244,0.127,0.448,0.297,0.613,0.507c0.163,0.21,0.286,0.456,0.365,0.734c0.08,0.28,0.121,0.578,0.121,0.895v5.377H211.458z"/>
<path fill="#1D1D1B" d="M217.824,55.506h-1.091l-2.846-7.533h1.154l2.212,5.951h0.032l1.929-5.951h1.154L217.824,55.506z"/>
<path fill="#1D1D1B" d="M227.396,51.756c0,0.548-0.057,1.061-0.174,1.541c-0.116,0.478-0.298,0.895-0.546,1.247
	c-0.248,0.354-0.567,0.63-0.958,0.831c-0.39,0.2-0.865,0.3-1.424,0.3c-0.549,0-1.018-0.1-1.409-0.3
	c-0.39-0.201-0.71-0.477-0.958-0.831c-0.248-0.353-0.428-0.769-0.539-1.247c-0.11-0.48-0.167-0.993-0.167-1.541
	c0-0.548,0.056-1.063,0.167-1.541c0.11-0.48,0.29-0.899,0.539-1.258c0.248-0.357,0.567-0.64,0.958-0.845
	c0.39-0.206,0.859-0.309,1.409-0.309c0.558,0,1.033,0.103,1.424,0.309c0.39,0.204,0.71,0.487,0.958,0.845
	c0.248,0.359,0.43,0.778,0.546,1.258C227.339,50.693,227.396,51.208,227.396,51.756z M226.162,51.739
	c0-0.949-0.156-1.694-0.466-2.233c-0.312-0.537-0.779-0.807-1.401-0.807c-0.613,0-1.071,0.269-1.377,0.807
	c-0.307,0.539-0.46,1.284-0.46,2.233c0,0.961,0.153,1.708,0.46,2.24c0.306,0.533,0.764,0.799,1.377,0.799
	c0.622,0,1.089-0.266,1.401-0.799C226.006,53.447,226.162,52.701,226.162,51.739z"/>
<path fill="#1D1D1B" d="M232.098,55.668v3.229h-1.065v-3.229l-2.814-7.694h1.186l2.16,6.364l2.082-6.364h1.184L232.098,55.668z"/>
<path fill="#1D1D1B" d="M241.218,50.177c-0.011-0.263-0.061-0.534-0.15-0.814c-0.089-0.28-0.235-0.536-0.434-0.767
	c-0.2-0.233-0.469-0.422-0.806-0.569c-0.336-0.148-0.762-0.223-1.278-0.223c-0.348,0-0.672,0.045-0.971,0.135
	c-0.301,0.091-0.566,0.217-0.797,0.38c-0.231,0.165-0.413,0.371-0.545,0.619c-0.132,0.248-0.198,0.53-0.198,0.848
	c0,0.369,0.1,0.698,0.301,0.982c0.201,0.286,0.523,0.492,0.967,0.619c-0.505,0.083-0.915,0.298-1.23,0.645
	c-0.316,0.348-0.474,0.742-0.474,1.185c0,0.369,0.065,0.696,0.197,0.981c0.132,0.285,0.316,0.525,0.552,0.719
	c0.237,0.195,0.516,0.354,0.837,0.475c0.321,0.121,0.67,0.203,1.049,0.245c0.578,0.073,1.101,0.086,1.569,0.039
	c0.469-0.048,0.923-0.13,1.364-0.245v-0.902c-0.536,0.148-1.045,0.235-1.528,0.262c-0.484,0.026-0.909,0.008-1.277-0.056
	c-0.168-0.032-0.34-0.082-0.519-0.15c-0.178-0.068-0.342-0.16-0.489-0.277c-0.147-0.115-0.268-0.257-0.363-0.427
	c-0.094-0.169-0.147-0.363-0.157-0.586c-0.011-0.274,0.035-0.5,0.135-0.68c0.1-0.179,0.234-0.324,0.404-0.434
	c0.168-0.11,0.363-0.189,0.584-0.238c0.221-0.047,0.448-0.071,0.679-0.071h0.411v-0.848h-0.427c-0.495,0-0.849-0.12-1.059-0.357
	c-0.21-0.238-0.316-0.516-0.316-0.833c0-0.339,0.118-0.608,0.352-0.81c0.235-0.2,0.536-0.301,0.9-0.301
	c0.418,0,0.752,0.124,1.003,0.371c0.25,0.248,0.386,0.609,0.407,1.082H241.218z"/>
<path fill="#1D1D1B" d="M248.587,51.676c0,0.507-0.048,0.999-0.144,1.479c-0.095,0.478-0.245,0.905-0.452,1.281
	c-0.206,0.372-0.471,0.674-0.793,0.899c-0.322,0.227-0.716,0.341-1.18,0.341c-0.328,0-0.608-0.047-0.841-0.141
	c-0.233-0.095-0.425-0.213-0.578-0.354c-0.154-0.142-0.275-0.294-0.365-0.457c-0.091-0.162-0.156-0.312-0.198-0.448h-0.024v4.622
	h-1.065v-7.137c0-0.548,0.05-1.063,0.15-1.542c0.1-0.48,0.268-0.899,0.505-1.258c0.236-0.359,0.545-0.64,0.924-0.846
	c0.378-0.206,0.843-0.309,1.39-0.309c0.905,0,1.576,0.348,2.014,1.043C248.368,49.543,248.587,50.486,248.587,51.676z
	 M247.353,51.47c0-0.242-0.017-0.522-0.048-0.839c-0.032-0.316-0.1-0.618-0.206-0.902c-0.106-0.285-0.263-0.528-0.475-0.728
	c-0.21-0.201-0.49-0.301-0.838-0.301c-0.318,0-0.587,0.095-0.808,0.285c-0.222,0.191-0.404,0.433-0.546,0.728
	c-0.142,0.297-0.248,0.621-0.316,0.975c-0.069,0.353-0.103,0.693-0.103,1.02c0,0.422,0.036,0.817,0.11,1.187
	c0.074,0.369,0.185,0.695,0.333,0.975c0.147,0.278,0.33,0.501,0.546,0.664c0.216,0.164,0.466,0.245,0.752,0.245
	c0.316,0,0.58-0.098,0.791-0.292c0.21-0.197,0.374-0.45,0.49-0.76c0.116-0.312,0.198-0.666,0.245-1.061
	C247.329,52.269,247.353,51.871,247.353,51.47z"/>
<path fill="#1D1D1B" d="M255.799,53.146c0,0.527-0.095,0.954-0.284,1.281c-0.191,0.327-0.421,0.581-0.691,0.766
	c-0.269,0.185-0.555,0.312-0.856,0.38c-0.301,0.068-0.563,0.103-0.785,0.103c-0.106,0-0.231-0.011-0.38-0.032
	c-0.148-0.021-0.297-0.055-0.445-0.102c-0.148-0.047-0.29-0.113-0.428-0.197c-0.138-0.083-0.244-0.189-0.318-0.315v3.866h-1.065
	V47.973h1.089v4.511c0,0.244,0.011,0.498,0.032,0.767c0.021,0.269,0.08,0.518,0.176,0.745c0.095,0.227,0.248,0.413,0.46,0.562
	c0.212,0.147,0.51,0.221,0.891,0.221s0.675-0.077,0.88-0.229c0.207-0.154,0.362-0.347,0.462-0.578
	c0.101-0.233,0.159-0.48,0.176-0.745c0.015-0.264,0.023-0.512,0.023-0.743v-4.511h1.065V53.146z"/>
<path fill="#1D1D1B" d="M262.494,55.506v-1.253h-0.024c-0.042,0.138-0.114,0.287-0.213,0.451c-0.101,0.164-0.233,0.316-0.396,0.459
	c-0.165,0.142-0.366,0.263-0.604,0.363c-0.238,0.1-0.516,0.15-0.834,0.15c-0.517,0-0.952-0.12-1.301-0.356
	c-0.349-0.236-0.626-0.545-0.832-0.925c-0.207-0.379-0.352-0.808-0.437-1.288c-0.085-0.478-0.127-0.961-0.127-1.446
	c0-0.537,0.056-1.04,0.166-1.509c0.11-0.469,0.29-0.878,0.537-1.226c0.248-0.347,0.561-0.621,0.941-0.82
	c0.38-0.201,0.838-0.301,1.375-0.301c0.675,0,1.2,0.124,1.573,0.371c0.374,0.248,0.654,0.546,0.838,0.895
	c0.185,0.348,0.298,0.709,0.341,1.082c0.041,0.375,0.062,0.684,0.062,0.926v4.428H262.494z M262.494,51.438
	c0-0.221-0.015-0.488-0.047-0.799c-0.032-0.312-0.103-0.608-0.213-0.895c-0.112-0.285-0.281-0.53-0.508-0.736
	c-0.227-0.206-0.542-0.309-0.943-0.309c-0.337,0-0.623,0.085-0.856,0.253c-0.231,0.17-0.419,0.394-0.563,0.674
	c-0.142,0.28-0.245,0.598-0.309,0.958c-0.064,0.357-0.095,0.727-0.095,1.108c0,0.359,0.029,0.722,0.088,1.091
	c0.057,0.369,0.15,0.702,0.277,0.998c0.127,0.297,0.297,0.536,0.508,0.72c0.21,0.185,0.475,0.277,0.791,0.277
	c0.339,0,0.626-0.104,0.864-0.316c0.237-0.212,0.431-0.478,0.578-0.799c0.148-0.322,0.257-0.681,0.325-1.078
	C262.461,52.19,262.494,51.807,262.494,51.438z"/>
<path fill="#1D1D1B" d="M268.863,55.506h-1.091l-2.846-7.533h1.154l2.212,5.951h0.032l1.929-5.951h1.154L268.863,55.506z"/>
<path fill="#1D1D1B" d="M273.957,55.506v-7.533h-1.065v7.533H273.957z"/>
<path fill="#1D1D1B" d="M280.624,55.506l-2.923-4.019h-0.032v4.019h-1.065v-7.533h1.065v3.18h0.032l2.607-3.18h1.313l-2.703,3.339
	l3.035,4.193H280.624z"/>
<path fill="#1D1D1B" d="M288.975,51.756c0,0.548-0.059,1.061-0.174,1.541c-0.117,0.478-0.298,0.895-0.546,1.247
	c-0.248,0.354-0.567,0.63-0.958,0.831c-0.39,0.2-0.865,0.3-1.425,0.3c-0.548,0-1.018-0.1-1.409-0.3
	c-0.39-0.201-0.71-0.477-0.958-0.831c-0.248-0.353-0.427-0.769-0.537-1.247c-0.112-0.48-0.166-0.993-0.166-1.541
	c0-0.548,0.054-1.063,0.166-1.541c0.11-0.48,0.289-0.899,0.537-1.258c0.248-0.357,0.567-0.64,0.958-0.845
	c0.39-0.206,0.861-0.309,1.409-0.309c0.56,0,1.035,0.103,1.425,0.309c0.39,0.204,0.71,0.487,0.958,0.845
	c0.248,0.359,0.43,0.778,0.546,1.258C288.917,50.693,288.975,51.208,288.975,51.756z M287.741,51.739
	c0-0.949-0.156-1.694-0.468-2.233c-0.312-0.537-0.777-0.807-1.401-0.807c-0.611,0-1.071,0.269-1.377,0.807
	c-0.305,0.539-0.458,1.284-0.458,2.233c0,0.961,0.153,1.708,0.458,2.24c0.306,0.533,0.766,0.799,1.377,0.799
	c0.623,0,1.089-0.266,1.401-0.799C287.585,53.447,287.741,52.701,287.741,51.739z M286.379,46.665h-0.997l0.666-2.131h1.392
	L286.379,46.665z"/>
<path fill="#1D1D1B" d="M295.101,55.506V44.582h5.282V45.6h-4.047v3.681h3.856v1.017h-3.856v4.19h4.189v1.017H295.101z"/>
<path fill="#1D1D1B" d="M307.598,47.973h-1.065v4.511c0,0.232-0.008,0.48-0.024,0.743c-0.015,0.265-0.074,0.512-0.174,0.745
	c-0.101,0.232-0.256,0.424-0.461,0.578c-0.207,0.151-0.501,0.229-0.882,0.229s-0.678-0.074-0.89-0.221
	c-0.212-0.148-0.366-0.335-0.461-0.562c-0.095-0.227-0.153-0.475-0.174-0.745c-0.021-0.269-0.032-0.524-0.032-0.767v-4.511h-1.089
	v10.923h1.065V55.03c0.074,0.126,0.18,0.232,0.318,0.315c0.136,0.083,0.28,0.15,0.428,0.197c0.147,0.047,0.295,0.08,0.443,0.102
	c0.148,0.021,0.275,0.032,0.381,0.032c0.222,0,0.484-0.035,0.785-0.103c0.301-0.068,0.587-0.195,0.856-0.38
	c0.269-0.185,0.499-0.439,0.69-0.766c0.191-0.327,0.286-0.754,0.286-1.281V47.973z"/>
<path fill="#1D1D1B" d="M314.22,55.506v-6.636h-3.098v6.636h-1.065v-7.533h5.229v7.533H314.22z"/>
<path fill="#1D1D1B" d="M323.439,51.756c0,0.548-0.059,1.061-0.175,1.541c-0.115,0.478-0.298,0.895-0.545,1.247
	c-0.248,0.354-0.567,0.63-0.958,0.831c-0.39,0.2-0.865,0.3-1.425,0.3c-0.549,0-1.018-0.1-1.409-0.3
	c-0.39-0.201-0.71-0.477-0.958-0.831c-0.248-0.353-0.427-0.769-0.539-1.247c-0.11-0.48-0.165-0.993-0.165-1.541
	c0-0.548,0.054-1.063,0.165-1.541c0.112-0.48,0.291-0.899,0.539-1.258c0.248-0.357,0.567-0.64,0.958-0.845
	c0.39-0.206,0.859-0.309,1.409-0.309c0.56,0,1.035,0.103,1.425,0.309c0.39,0.204,0.71,0.487,0.958,0.845
	c0.247,0.359,0.43,0.778,0.545,1.258C323.38,50.693,323.439,51.208,323.439,51.756z M322.205,51.739
	c0-0.949-0.156-1.694-0.468-2.233c-0.312-0.537-0.778-0.807-1.401-0.807c-0.611,0-1.071,0.269-1.377,0.807
	c-0.306,0.539-0.458,1.284-0.458,2.233c0,0.961,0.153,1.708,0.458,2.24c0.306,0.533,0.766,0.799,1.377,0.799
	c0.623,0,1.089-0.266,1.401-0.799C322.049,53.447,322.205,52.701,322.205,51.739z"/>
<path fill="#1D1D1B" d="M331.038,51.676c0,0.507-0.047,0.999-0.142,1.479c-0.095,0.478-0.247,0.905-0.452,1.281
	c-0.206,0.372-0.471,0.674-0.793,0.899c-0.322,0.227-0.716,0.341-1.182,0.341c-0.327,0-0.607-0.047-0.84-0.141
	c-0.233-0.095-0.425-0.213-0.579-0.354c-0.153-0.142-0.274-0.294-0.365-0.457c-0.089-0.162-0.156-0.312-0.198-0.448h-0.024v4.622
	h-1.065v-7.137c0-0.548,0.05-1.063,0.151-1.542c0.1-0.48,0.268-0.899,0.505-1.258c0.236-0.359,0.545-0.64,0.924-0.846
	c0.378-0.206,0.843-0.309,1.39-0.309c0.905,0,1.576,0.348,2.014,1.043C330.82,49.543,331.038,50.486,331.038,51.676z M329.804,51.47
	c0-0.242-0.015-0.522-0.047-0.839c-0.032-0.316-0.1-0.618-0.206-0.902c-0.106-0.285-0.265-0.528-0.475-0.728
	c-0.212-0.201-0.492-0.301-0.84-0.301c-0.316,0-0.586,0.095-0.806,0.285c-0.222,0.191-0.404,0.433-0.546,0.728
	c-0.144,0.297-0.248,0.621-0.318,0.975c-0.068,0.353-0.103,0.693-0.103,1.02c0,0.422,0.038,0.817,0.112,1.187
	c0.073,0.369,0.185,0.695,0.331,0.975c0.148,0.278,0.33,0.501,0.546,0.664c0.216,0.164,0.467,0.245,0.752,0.245
	c0.318,0,0.581-0.098,0.793-0.292c0.21-0.197,0.374-0.45,0.49-0.76c0.116-0.312,0.198-0.666,0.245-1.061
	C329.781,52.269,329.804,51.871,329.804,51.47z"/>
<path fill="#1D1D1B" d="M333.096,55.506v-7.533h1.065v7.533H333.096z"/>
<path fill="#1D1D1B" d="M340.828,55.506l-2.924-4.019h-0.032v4.019h-1.065v-7.533h1.065v3.18h0.032l2.608-3.18h1.312l-2.702,3.339
	l3.035,4.193H340.828z"/>
<path fill="#1D1D1B" d="M349.179,51.756c0,0.548-0.059,1.061-0.174,1.541c-0.116,0.478-0.298,0.895-0.546,1.247
	c-0.248,0.354-0.567,0.63-0.958,0.831c-0.39,0.2-0.865,0.3-1.425,0.3c-0.548,0-1.018-0.1-1.408-0.3
	c-0.39-0.201-0.71-0.477-0.958-0.831c-0.248-0.353-0.427-0.769-0.537-1.247c-0.112-0.48-0.166-0.993-0.166-1.541
	c0-0.548,0.055-1.063,0.166-1.541c0.11-0.48,0.289-0.899,0.537-1.258c0.248-0.357,0.567-0.64,0.958-0.845
	c0.39-0.206,0.861-0.309,1.408-0.309c0.56,0,1.035,0.103,1.425,0.309c0.39,0.204,0.71,0.487,0.958,0.845
	c0.248,0.359,0.43,0.778,0.546,1.258C349.12,50.693,349.179,51.208,349.179,51.756z M347.945,51.739
	c0-0.949-0.156-1.694-0.467-2.233c-0.312-0.537-0.778-0.807-1.401-0.807c-0.611,0-1.071,0.269-1.377,0.807
	c-0.306,0.539-0.458,1.284-0.458,2.233c0,0.961,0.153,1.708,0.458,2.24c0.306,0.533,0.765,0.799,1.377,0.799
	c0.623,0,1.089-0.266,1.401-0.799C347.789,53.447,347.945,52.701,347.945,51.739z M346.583,46.665h-0.997l0.666-2.131h1.392
	L346.583,46.665z"/>
<path fill="#1D1D1B" d="M190.556,71.007l-2.924-4.019H187.6v4.019h-1.065v-7.533h1.065v3.18h0.032l2.608-3.18h1.312l-2.702,3.339
	l3.035,4.193H190.556z"/>
<path fill="#1D1D1B" d="M197.502,71.007v-1.253h-0.024c-0.042,0.138-0.113,0.288-0.213,0.451c-0.101,0.164-0.233,0.316-0.396,0.459
	c-0.165,0.142-0.366,0.263-0.604,0.363c-0.238,0.1-0.516,0.15-0.834,0.15c-0.517,0-0.951-0.12-1.301-0.356
	c-0.35-0.236-0.626-0.545-0.832-0.925c-0.207-0.379-0.353-0.808-0.437-1.288c-0.085-0.478-0.127-0.961-0.127-1.446
	c0-0.537,0.056-1.04,0.166-1.509c0.11-0.469,0.29-0.878,0.537-1.226c0.248-0.347,0.561-0.621,0.941-0.82
	c0.38-0.201,0.838-0.301,1.375-0.301c0.675,0,1.2,0.124,1.574,0.371c0.374,0.248,0.653,0.546,0.838,0.895
	c0.185,0.348,0.298,0.709,0.34,1.082c0.041,0.375,0.062,0.684,0.062,0.926v4.428H197.502z M197.502,66.939
	c0-0.221-0.015-0.487-0.047-0.799c-0.032-0.312-0.103-0.608-0.213-0.895c-0.112-0.285-0.281-0.53-0.508-0.736
	c-0.227-0.206-0.542-0.309-0.942-0.309c-0.337,0-0.623,0.085-0.856,0.253c-0.231,0.17-0.419,0.394-0.563,0.674
	c-0.142,0.28-0.245,0.598-0.309,0.958c-0.064,0.357-0.095,0.727-0.095,1.108c0,0.359,0.029,0.722,0.088,1.091
	c0.057,0.369,0.15,0.702,0.277,0.998c0.127,0.297,0.297,0.536,0.508,0.72c0.21,0.185,0.475,0.277,0.791,0.277
	c0.339,0,0.626-0.104,0.864-0.316c0.238-0.212,0.431-0.478,0.578-0.799c0.148-0.322,0.257-0.681,0.325-1.078
	C197.468,67.691,197.502,67.308,197.502,66.939z"/>
<path fill="#1D1D1B" d="M201.169,71.007v-7.533h1.065v7.533H201.169z"/>
<path fill="#1D1D1B" d="M215.435,68.047c0,0.569-0.097,1.042-0.293,1.417c-0.195,0.374-0.454,0.678-0.776,0.91
	c-0.322,0.232-0.696,0.395-1.118,0.49c-0.424,0.095-0.856,0.142-1.301,0.142h-2.902V60.083h2.902c0.445,0,0.849,0.059,1.213,0.174
	c0.365,0.117,0.676,0.285,0.935,0.507c0.259,0.221,0.463,0.501,0.611,0.839c0.147,0.338,0.221,0.728,0.221,1.172
	c0,0.465-0.071,0.848-0.213,1.149c-0.142,0.3-0.304,0.541-0.484,0.719c-0.178,0.18-0.359,0.312-0.539,0.397
	c-0.18,0.085-0.301,0.138-0.365,0.157v0.032c0.212,0.053,0.439,0.13,0.682,0.23c0.244,0.1,0.471,0.253,0.682,0.459
	c0.21,0.206,0.387,0.48,0.531,0.823C215.364,67.084,215.435,67.519,215.435,68.047z M213.693,62.85c0-0.403-0.074-0.722-0.222-0.955
	c-0.148-0.233-0.33-0.407-0.548-0.524c-0.216-0.117-0.452-0.191-0.706-0.224c-0.254-0.03-0.486-0.047-0.697-0.047h-1.239v3.706
	h1.064c0.18,0,0.403-0.011,0.667-0.032c0.265-0.021,0.52-0.095,0.77-0.223c0.248-0.127,0.463-0.324,0.643-0.589
	C213.603,63.698,213.693,63.327,213.693,62.85z M214.201,67.923c0-0.339-0.06-0.639-0.181-0.899c-0.123-0.259-0.286-0.48-0.493-0.66
	c-0.206-0.18-0.452-0.315-0.738-0.406c-0.286-0.089-0.598-0.135-0.936-0.135h-1.572v4.166h1.43c0.159,0,0.375-0.014,0.651-0.039
	c0.275-0.027,0.551-0.106,0.826-0.239c0.275-0.132,0.513-0.339,0.714-0.619C214.101,68.81,214.201,68.421,214.201,67.923z"/>
<path fill="#1D1D1B" d="M217.555,71.007v-7.533h1.065v7.533H217.555z"/>
<path fill="#1D1D1B" d="M226.906,67.257c0,0.548-0.057,1.061-0.174,1.541c-0.117,0.478-0.298,0.895-0.546,1.247
	c-0.248,0.354-0.567,0.63-0.958,0.831c-0.39,0.2-0.865,0.3-1.423,0.3c-0.549,0-1.018-0.1-1.409-0.3
	c-0.39-0.201-0.71-0.477-0.958-0.831c-0.248-0.353-0.428-0.769-0.538-1.247c-0.111-0.48-0.167-0.993-0.167-1.541
	c0-0.548,0.056-1.063,0.167-1.541c0.11-0.48,0.29-0.899,0.538-1.258c0.248-0.357,0.567-0.64,0.958-0.845
	c0.39-0.206,0.859-0.309,1.409-0.309c0.558,0,1.033,0.103,1.423,0.309c0.39,0.204,0.71,0.487,0.958,0.845
	c0.248,0.359,0.43,0.778,0.546,1.258C226.849,66.194,226.906,66.709,226.906,67.257z M225.672,67.24
	c0-0.949-0.156-1.694-0.467-2.233c-0.31-0.537-0.778-0.807-1.399-0.807c-0.613,0-1.071,0.269-1.378,0.807
	c-0.306,0.539-0.458,1.284-0.458,2.233c0,0.961,0.153,1.708,0.458,2.24c0.307,0.533,0.766,0.799,1.378,0.799
	c0.622,0,1.089-0.266,1.399-0.799C225.516,68.948,225.672,68.201,225.672,67.24z"/>
<path fill="#1D1D1B" d="M234.12,68.647c0,0.527-0.095,0.954-0.286,1.281c-0.191,0.327-0.421,0.581-0.69,0.766
	c-0.269,0.185-0.555,0.312-0.856,0.38c-0.301,0.068-0.563,0.103-0.785,0.103c-0.106,0-0.233-0.011-0.381-0.032
	c-0.148-0.021-0.297-0.055-0.443-0.102c-0.148-0.047-0.292-0.113-0.428-0.197c-0.138-0.083-0.243-0.189-0.318-0.315v3.866h-1.065
	V63.474h1.089v4.511c0,0.244,0.011,0.498,0.032,0.767c0.021,0.269,0.079,0.518,0.174,0.745c0.095,0.227,0.25,0.413,0.461,0.562
	c0.212,0.147,0.508,0.221,0.89,0.221c0.381,0,0.675-0.077,0.882-0.229c0.206-0.154,0.36-0.347,0.461-0.578
	c0.1-0.233,0.159-0.48,0.174-0.745c0.017-0.263,0.024-0.512,0.024-0.743v-4.511h1.065V68.647z"/>
<path fill="#1D1D1B" d="M240.911,71.007v-4.181c0-0.327-0.006-0.639-0.017-0.934c-0.011-0.297-0.05-0.557-0.119-0.784
	c-0.068-0.227-0.18-0.407-0.335-0.539c-0.154-0.132-0.369-0.198-0.646-0.198c-0.362,0-0.675,0.12-0.939,0.356
	c-0.266,0.239-0.49,0.536-0.67,0.896c-0.182,0.359-0.316,0.745-0.407,1.156c-0.089,0.412-0.135,0.786-0.135,1.123v3.105h-1.065
	v-7.533h1.065v1.744h0.024c0.053-0.157,0.127-0.345,0.223-0.562c0.095-0.215,0.23-0.424,0.405-0.624
	c0.174-0.201,0.402-0.372,0.684-0.515c0.28-0.142,0.632-0.213,1.057-0.213c0.318,0,0.599,0.064,0.843,0.189
	c0.244,0.127,0.448,0.297,0.611,0.507c0.165,0.21,0.286,0.456,0.366,0.734c0.079,0.28,0.12,0.578,0.12,0.895v5.377H240.911z"/>
<path fill="#1D1D1B" d="M248.819,71.007L246.764,68l-2.103,3.006h-1.297l2.719-3.956l-2.402-3.577h1.297l1.787,2.626l1.785-2.626
	h1.297l-2.434,3.577l2.704,3.956H248.819z"/>
<path fill="#1D1D1B" d="M255.731,71.007v-1.253h-0.024c-0.042,0.138-0.115,0.288-0.215,0.451c-0.101,0.164-0.233,0.316-0.396,0.459
	c-0.165,0.142-0.365,0.263-0.604,0.363c-0.238,0.1-0.516,0.15-0.832,0.15c-0.519,0-0.953-0.12-1.303-0.356
	c-0.348-0.236-0.626-0.545-0.832-0.925c-0.207-0.379-0.352-0.808-0.437-1.288c-0.085-0.478-0.126-0.961-0.126-1.446
	c0-0.537,0.055-1.04,0.165-1.509c0.11-0.469,0.291-0.878,0.539-1.226c0.247-0.347,0.56-0.621,0.94-0.82
	c0.38-0.201,0.838-0.301,1.377-0.301c0.673,0,1.198,0.124,1.572,0.371c0.375,0.248,0.654,0.546,0.838,0.895
	c0.185,0.348,0.298,0.709,0.34,1.082c0.042,0.375,0.064,0.684,0.064,0.926v4.428H255.731z M255.731,66.939
	c0-0.221-0.017-0.487-0.048-0.799c-0.032-0.312-0.103-0.608-0.213-0.895c-0.112-0.285-0.28-0.53-0.507-0.736
	c-0.229-0.206-0.542-0.309-0.944-0.309c-0.337,0-0.623,0.085-0.855,0.253c-0.233,0.17-0.421,0.394-0.563,0.674
	c-0.144,0.28-0.247,0.598-0.31,0.958c-0.064,0.357-0.094,0.727-0.094,1.108c0,0.359,0.029,0.722,0.086,1.091
	c0.059,0.369,0.151,0.702,0.278,0.998c0.125,0.297,0.295,0.536,0.507,0.72c0.21,0.185,0.475,0.277,0.793,0.277
	c0.337,0,0.625-0.104,0.862-0.316c0.238-0.212,0.431-0.478,0.579-0.799c0.147-0.322,0.256-0.681,0.324-1.078
	C255.696,67.691,255.731,67.308,255.731,66.939z"/>
<path fill="#1D1D1B" d="M262.099,71.007h-1.091l-2.846-7.533h1.154l2.213,5.951h0.032l1.928-5.951h1.154L262.099,71.007z"/>
<path fill="#1D1D1B" d="M266.129,71.007v-7.533h1.065v7.533H266.129z"/>
<path fill="#1D1D1B" d="M273.862,71.007l-2.924-4.019h-0.032v4.019h-1.065v-7.533h1.065v3.18h0.032l2.608-3.18h1.312l-2.704,3.339
	l3.035,4.193H273.862z"/>
<path fill="#1D1D1B" d="M282.211,67.257c0,0.548-0.057,1.061-0.174,1.541c-0.117,0.478-0.298,0.895-0.546,1.247
	c-0.248,0.354-0.567,0.63-0.958,0.831c-0.39,0.2-0.865,0.3-1.424,0.3c-0.549,0-1.018-0.1-1.409-0.3
	c-0.39-0.201-0.71-0.477-0.958-0.831c-0.248-0.353-0.428-0.769-0.538-1.247c-0.111-0.48-0.166-0.993-0.166-1.541
	c0-0.548,0.056-1.063,0.166-1.541c0.11-0.48,0.29-0.899,0.538-1.258c0.248-0.357,0.567-0.64,0.958-0.845
	c0.39-0.206,0.859-0.309,1.409-0.309c0.558,0,1.033,0.103,1.424,0.309c0.39,0.204,0.71,0.487,0.958,0.845
	c0.248,0.359,0.43,0.778,0.546,1.258C282.154,66.194,282.211,66.709,282.211,67.257z M280.977,67.24
	c0-0.949-0.156-1.694-0.466-2.233c-0.312-0.537-0.779-0.807-1.401-0.807c-0.613,0-1.071,0.269-1.377,0.807
	c-0.307,0.539-0.46,1.284-0.46,2.233c0,0.961,0.153,1.708,0.46,2.24c0.306,0.533,0.764,0.799,1.377,0.799
	c0.622,0,1.089-0.266,1.401-0.799C280.821,68.948,280.977,68.201,280.977,67.24z M279.617,62.166h-0.997l0.664-2.131h1.393
	L279.617,62.166z"/>
<path fill="#1D1D1B" d="M288.337,71.007V60.083h5.282V61.1h-4.047v3.681h3.856v1.017h-3.856v4.19h4.189v1.017H288.337z"/>
<path fill="#1D1D1B" d="M299.744,71.007V64.37h-3.098v6.636h-1.065v-7.533h5.229v7.533H299.744z"/>
<path fill="#1D1D1B" d="M304.486,71.007v-7.533h-1.065v7.533H304.486z"/>
<path fill="#1D1D1B" d="M312.384,68.647c0,0.527-0.095,0.954-0.286,1.281c-0.191,0.327-0.421,0.581-0.69,0.766
	c-0.269,0.185-0.555,0.312-0.856,0.38c-0.301,0.068-0.563,0.103-0.785,0.103c-0.106,0-0.233-0.011-0.381-0.032
	c-0.148-0.021-0.295-0.055-0.443-0.102c-0.148-0.047-0.291-0.113-0.428-0.197c-0.138-0.083-0.244-0.189-0.318-0.315v3.866h-1.065
	V63.474h1.089v4.511c0,0.244,0.011,0.498,0.032,0.767c0.021,0.269,0.08,0.518,0.176,0.745c0.095,0.227,0.248,0.413,0.46,0.562
	c0.212,0.147,0.508,0.221,0.89,0.221s0.676-0.077,0.882-0.229c0.207-0.154,0.36-0.347,0.461-0.578c0.1-0.233,0.159-0.48,0.174-0.745
	c0.017-0.263,0.024-0.512,0.024-0.743v-4.511h1.065V68.647z"/>
<path fill="#1D1D1B" d="M318.571,65.678c-0.021-0.474-0.157-0.834-0.407-1.082c-0.251-0.247-0.586-0.371-1.003-0.371
	c-0.365,0-0.666,0.101-0.9,0.301c-0.234,0.201-0.352,0.471-0.352,0.81c0,0.316,0.106,0.595,0.316,0.833
	c0.21,0.238,0.564,0.357,1.059,0.357h0.427v0.848h-0.411c-0.231,0-0.458,0.024-0.679,0.071c-0.221,0.049-0.416,0.127-0.584,0.238
	c-0.169,0.11-0.304,0.256-0.404,0.434c-0.1,0.18-0.145,0.406-0.135,0.68c0.011,0.223,0.064,0.416,0.157,0.586
	c0.095,0.17,0.216,0.312,0.363,0.427c0.147,0.117,0.31,0.209,0.489,0.277c0.179,0.068,0.351,0.118,0.519,0.15
	c0.368,0.063,0.793,0.082,1.277,0.056c0.483-0.027,0.993-0.113,1.528-0.262v0.902c-0.442,0.115-0.896,0.197-1.365,0.245
	c-0.468,0.047-0.991,0.033-1.569-0.039c-0.378-0.042-0.728-0.124-1.048-0.245c-0.321-0.121-0.599-0.28-0.837-0.475
	c-0.236-0.194-0.421-0.434-0.552-0.719c-0.132-0.285-0.197-0.612-0.197-0.981c0-0.443,0.157-0.837,0.474-1.185
	c0.315-0.347,0.725-0.562,1.23-0.645c-0.443-0.127-0.765-0.333-0.967-0.619c-0.201-0.285-0.301-0.613-0.301-0.982
	c0-0.318,0.066-0.6,0.198-0.848c0.132-0.248,0.313-0.454,0.545-0.619c0.232-0.164,0.496-0.289,0.797-0.38
	c0.3-0.089,0.623-0.135,0.971-0.135c0.516,0,0.942,0.074,1.278,0.223c0.337,0.147,0.607,0.336,0.807,0.569
	c0.2,0.232,0.345,0.487,0.434,0.767c0.089,0.28,0.139,0.551,0.15,0.814H318.571z"/>
<path fill="#1D1D1B" d="M325.755,71.011l-1.834-6.073l-2.324,6.073h-1.154l2.988-7.75l-0.348-1.138
	c-0.095-0.316-0.209-0.559-0.34-0.727c-0.131-0.17-0.281-0.285-0.449-0.348c-0.169-0.064-0.362-0.082-0.578-0.056
	c-0.216,0.027-0.455,0.082-0.719,0.167v-0.964c0.327-0.085,0.646-0.133,0.956-0.142c0.312-0.012,0.604,0.036,0.877,0.142
	c0.274,0.104,0.516,0.275,0.728,0.513c0.21,0.238,0.378,0.562,0.505,0.973l2.846,9.331H325.755z"/>
<path fill="#1D1D1B" d="M332.575,71.007v-4.181c0-0.327-0.005-0.639-0.015-0.934c-0.011-0.297-0.052-0.557-0.12-0.784
	c-0.07-0.227-0.182-0.407-0.336-0.539c-0.154-0.132-0.369-0.198-0.644-0.198c-0.362,0-0.676,0.12-0.941,0.356
	c-0.266,0.239-0.489,0.536-0.67,0.896c-0.18,0.359-0.316,0.745-0.405,1.156c-0.091,0.412-0.136,0.786-0.136,1.123v3.105h-1.065
	v-7.533h1.065v1.744h0.024c0.053-0.157,0.127-0.345,0.222-0.562c0.095-0.215,0.231-0.424,0.405-0.624
	c0.176-0.201,0.403-0.372,0.684-0.515c0.282-0.142,0.634-0.213,1.058-0.213c0.318,0,0.599,0.064,0.843,0.189
	c0.244,0.127,0.448,0.297,0.611,0.507c0.165,0.21,0.288,0.456,0.366,0.734c0.08,0.28,0.12,0.578,0.12,0.895v5.377H332.575z"/>
<path fill="#1D1D1B" d="M338.356,64.37v6.636h-1.065V64.37h-2.26v-0.896h5.585v0.896H338.356z"/>
<path fill="#1D1D1B" d="M346.355,71.007v-4.181c0-0.327-0.005-0.639-0.015-0.934c-0.011-0.297-0.051-0.557-0.12-0.784
	c-0.069-0.227-0.182-0.407-0.336-0.539c-0.154-0.132-0.369-0.198-0.644-0.198c-0.362,0-0.676,0.12-0.941,0.356
	c-0.266,0.239-0.489,0.536-0.67,0.896c-0.18,0.359-0.316,0.745-0.406,1.156c-0.091,0.412-0.136,0.786-0.136,1.123v3.105h-1.065
	v-7.533h1.065v1.738h0.024c0.053-0.158,0.127-0.344,0.222-0.56c0.095-0.215,0.232-0.422,0.406-0.622
	c0.175-0.2,0.402-0.369,0.684-0.512c0.281-0.142,0.634-0.213,1.057-0.213c0.318,0,0.599,0.064,0.843,0.189
	c0.244,0.127,0.448,0.297,0.611,0.507c0.165,0.21,0.287,0.456,0.366,0.734c0.08,0.28,0.119,0.578,0.119,0.895v5.377H346.355z
	 M345.385,62.166h-1.005l0.669-2.131h1.402L345.385,62.166z"/>
<path fill="#1D1D1B" d="M355.562,67.177c0,0.507-0.047,0.999-0.142,1.479c-0.095,0.478-0.247,0.905-0.452,1.281
	c-0.206,0.372-0.47,0.673-0.793,0.899c-0.322,0.227-0.716,0.341-1.182,0.341c-0.327,0-0.607-0.047-0.84-0.141
	c-0.233-0.095-0.425-0.213-0.579-0.354c-0.153-0.142-0.274-0.294-0.365-0.457c-0.089-0.162-0.156-0.312-0.198-0.448h-0.024v4.622
	h-1.065V67.26c0-0.548,0.05-1.063,0.151-1.542c0.1-0.48,0.268-0.899,0.505-1.258c0.236-0.359,0.545-0.64,0.924-0.846
	c0.378-0.206,0.843-0.309,1.39-0.309c0.905,0,1.576,0.348,2.014,1.043C355.344,65.044,355.562,65.987,355.562,67.177z
	 M354.328,66.971c0-0.242-0.015-0.522-0.047-0.839c-0.032-0.316-0.1-0.618-0.206-0.902c-0.106-0.285-0.265-0.528-0.475-0.728
	c-0.212-0.201-0.492-0.301-0.84-0.301c-0.316,0-0.585,0.095-0.806,0.285c-0.222,0.191-0.404,0.433-0.546,0.728
	c-0.144,0.297-0.248,0.621-0.318,0.975c-0.068,0.353-0.103,0.693-0.103,1.02c0,0.422,0.038,0.817,0.112,1.187
	c0.073,0.369,0.185,0.695,0.331,0.975c0.148,0.279,0.33,0.501,0.546,0.665c0.216,0.164,0.468,0.245,0.752,0.245
	c0.318,0,0.581-0.098,0.793-0.292c0.21-0.197,0.374-0.45,0.49-0.76c0.117-0.312,0.198-0.666,0.245-1.061
	C354.305,67.77,354.328,67.372,354.328,66.971z"/>
<path fill="#1D1D1B" d="M357.62,71.007v-7.533h1.065v7.533H357.62z"/>
<path fill="#1D1D1B" d="M366.971,67.257c0,0.548-0.058,1.061-0.174,1.541c-0.117,0.478-0.298,0.895-0.546,1.247
	c-0.248,0.354-0.567,0.63-0.958,0.831c-0.39,0.2-0.865,0.3-1.423,0.3c-0.549,0-1.018-0.1-1.409-0.3
	c-0.39-0.201-0.71-0.477-0.958-0.831c-0.248-0.353-0.428-0.769-0.539-1.247c-0.11-0.48-0.166-0.993-0.166-1.541
	c0-0.548,0.056-1.063,0.166-1.541c0.11-0.48,0.291-0.899,0.539-1.258c0.248-0.357,0.568-0.64,0.958-0.845
	c0.39-0.206,0.859-0.309,1.409-0.309c0.558,0,1.033,0.103,1.423,0.309c0.39,0.204,0.71,0.487,0.958,0.845
	c0.248,0.359,0.43,0.778,0.546,1.258C366.913,66.194,366.971,66.709,366.971,67.257z M365.736,67.24
	c0-0.949-0.156-1.694-0.466-2.233c-0.312-0.537-0.779-0.807-1.401-0.807c-0.613,0-1.071,0.269-1.377,0.807
	c-0.307,0.539-0.46,1.284-0.46,2.233c0,0.961,0.153,1.708,0.46,2.24c0.306,0.533,0.764,0.799,1.377,0.799
	c0.622,0,1.089-0.266,1.401-0.799C365.581,68.948,365.736,68.201,365.736,67.24z"/>
</svg>
